<?xml version="1.0" encoding="UTF-8"?>
<svg version="1.1" xmlns="http://www.w3.org/2000/svg" width="1776" height="394">
<path d="M0 0 C5.17747317 4.62880068 8.75397404 10.23125684 12.5625 16 C13.26922852 17.06871338 13.97595703 18.13742676 14.70410156 19.23852539 C23.86761319 33.22935504 31.98444553 47.59235526 39.3125 62.625 C39.78010742 63.57689209 40.24771484 64.52878418 40.72949219 65.50952148 C48.42066601 81.65311622 53.7262794 98.82800367 59.08935547 115.84960938 C60.11850469 119.10445755 61.16645114 122.35286999 62.21484375 125.6015625 C68.1379223 144.20909462 72.70828564 163.23782582 74.8125 182.6875 C74.98676514 184.2964917 74.98676514 184.2964917 75.16455078 185.93798828 C77.33185189 208.73774062 78.1370124 233.56884075 73 256 C72.70198486 257.30227539 72.70198486 257.30227539 72.39794922 258.63085938 C67.6552578 278.48266436 60.20681545 297.36390617 42.80859375 309.30859375 C29.55198929 317.29205652 15.18285553 317.49999135 0.390625 313.96484375 C-4.99253623 312.43299948 -9.95784211 310.4209639 -15 308 C-15.63276855 307.69852051 -16.26553711 307.39704102 -16.91748047 307.08642578 C-33.66925322 298.99619449 -47.54042759 287.772475 -61.36474609 275.45605469 C-62.81602616 274.16381308 -64.27650558 272.88191951 -65.73828125 271.6015625 C-74.39998005 263.94832305 -82.75161373 255.84653167 -90.2421875 247.03515625 C-92.3526414 244.59171962 -94.55292879 242.24081179 -96.75 239.875 C-100.95447575 235.26466234 -104.85373501 230.49234936 -108.66943359 225.55761719 C-111.20625556 222.27802801 -113.77545419 219.0337976 -116.41015625 215.83203125 C-116.98660889 215.13102295 -117.56306152 214.43001465 -118.15698242 213.70776367 C-119.26672448 212.36241629 -120.37993243 211.01991694 -121.49731445 209.6809082 C-125.07174488 205.33880734 -128.13259152 200.83745678 -131 196 C-126.33564431 197.416268 -123.62417763 200.09549441 -120.375 203.5625 C-115.74842506 208.34205502 -110.96594173 212.66973557 -105.74609375 216.80859375 C-102.95561654 219.03541838 -100.26569166 221.35585502 -97.5625 223.6875 C-72.31024377 244.69293436 -37.43963548 267.7021112 -3 265 C9.55558396 262.89358103 20.1049234 258.24649833 28 248 C38.38921226 232.36017508 42.14196749 212.47684493 42.16796875 193.953125 C42.17129715 193.10184021 42.17462555 192.25055542 42.17805481 191.37347412 C42.18309334 189.5749973 42.18546409 187.77651122 42.18530273 185.97802734 C42.18746055 183.2989848 42.20556926 180.62037458 42.22460938 177.94140625 C42.28119116 161.06340936 40.72294039 144.55559806 37.75 127.9375 C37.4257605 126.10469482 37.4257605 126.10469482 37.0949707 124.23486328 C30.04039137 85.1567693 18.88451288 46.61120969 2.99658203 10.16918945 C2.60196777 9.26128662 2.20735352 8.35338379 1.80078125 7.41796875 C1.27738159 6.23883911 1.27738159 6.23883911 0.7434082 5.03588867 C0 3 0 3 0 0 Z " fill="#FD7A0E" transform="translate(131,78)"/>
<path d="M0 0 C3.41826938 2.32685478 6.68330955 4.8203225 9.90234375 7.4140625 C10.45615723 7.8565332 11.0099707 8.29900391 11.58056641 8.75488281 C23.0289352 17.99825995 33.81619215 28.32583434 43.4375 39.4609375 C46.75482336 43.29885418 50.27921525 46.86672957 53.90234375 50.4140625 C58.21112785 54.67816375 62.42862426 58.95133425 66.34765625 63.58203125 C68.07013341 65.61178449 69.8602181 67.57060321 71.65234375 69.5390625 C79.73228098 78.62310843 87.10239682 88.34178617 93.90234375 98.4140625 C89.66279841 98.4140625 87.9703759 95.96400833 85.08984375 93.1640625 C83.90798369 92.047641 82.72433576 90.93310964 81.5390625 89.8203125 C80.93239746 89.24925781 80.32573242 88.67820312 79.70068359 88.08984375 C63.96054724 73.42241286 46.76322965 59.81272874 27.90234375 49.4140625 C26.67164926 48.71263551 25.44118367 48.01080676 24.2109375 47.30859375 C15.44069875 42.38420773 6.46633344 38.52305256 -3.09765625 35.4140625 C-4.14050781 35.07246094 -5.18335937 34.73085938 -6.2578125 34.37890625 C-19.69783786 30.65038309 -36.40179257 30.15191352 -49.09765625 36.4140625 C-52.48091155 38.2786931 -52.48091155 38.2786931 -55.09765625 40.4140625 C-55.90203125 40.9503125 -56.70640625 41.4865625 -57.53515625 42.0390625 C-72.97479956 56.34897581 -76.8981039 79.32601242 -78.09765625 99.4140625 C-80.17755572 156.6255997 -66.82415949 213.45960878 -46.78515625 266.7890625 C-46.41242584 267.78234055 -46.41242584 267.78234055 -46.03216553 268.79568481 C-43.28039161 276.09102438 -40.36561201 283.24055444 -36.89379883 290.22900391 C-36.09765625 292.4140625 -36.09765625 292.4140625 -37.09765625 295.4140625 C-43.03809258 289.01666953 -47.54674499 281.82311337 -52.09765625 274.4140625 C-52.96922363 273.00471436 -52.96922363 273.00471436 -53.85839844 271.56689453 C-79.06490271 230.61434242 -96.73807276 186.91261641 -105.97265625 139.6640625 C-106.11854187 138.91787659 -106.26442749 138.17169067 -106.41473389 137.40289307 C-109.46271734 121.63266419 -111.39593917 106.03953018 -111.78515625 89.9765625 C-111.80411957 89.25528168 -111.82308289 88.53400085 -111.84262085 87.79086304 C-112.6738229 55.33450884 -109.55614336 18.27373092 -86.09765625 -6.5859375 C-60.32892923 -30.22028511 -25.50163115 -16.55175755 0 0 Z " fill="#7EC056" transform="translate(132.09765625,18.5859375)"/>
<path d="M0 0 C46.14285714 0 46.14285714 0 52.8125 5.1875 C60.38783021 14.92721026 60.74271848 25.09174698 60 37 C58.96666416 43.59408382 55.98079714 48.57007443 51 53 C48.71773077 54.54901004 46.47640394 55.76179803 44 57 C44.44988281 57.52722656 44.89976562 58.05445313 45.36328125 58.59765625 C52.52075481 67.64848955 57.00316422 77.94254248 61.77661133 88.38208008 C63.13189042 91.28223128 64.56412253 94.13903418 66 97 C69.07798534 86.10751969 72.15542966 75.21488669 75.23219776 64.32206249 C76.66112811 59.26321819 78.09023948 54.20442517 79.51977539 49.14575195 C80.9012863 44.25699781 82.28230754 39.36810558 83.66300011 34.47912025 C84.18786135 32.62092553 84.7128942 30.76277926 85.23810768 28.90468407 C85.97796964 26.28709166 86.71722916 23.66932988 87.45629883 21.05151367 C87.68403897 20.24597644 87.91177912 19.44043921 88.14642048 18.61049175 C89.62816763 13.35749414 91.0643299 8.09413845 92.44096375 2.81245422 C93 1 93 1 94 0 C96.86267567 -0.07325168 99.700719 -0.09238205 102.5625 -0.0625 C103.36880859 -0.05798828 104.17511719 -0.05347656 105.00585938 -0.04882812 C107.00393756 -0.03700518 109.00197783 -0.01906914 111 0 C113.60085748 8.90377294 116.20079908 17.80781272 118.79968262 26.71216202 C120.00747372 30.85022304 121.21553929 34.98820345 122.42431641 39.12597656 C128.34661083 59.39945621 134.22715237 79.68338081 140 100 C134.06 100 128.12 100 122 100 C121.1602972 97.08503169 120.32803997 94.1682814 119.5 91.25 C119.14228516 90.0125 119.14228516 90.0125 118.77734375 88.75 C118.55175781 87.95078125 118.32617188 87.1515625 118.09375 86.328125 C117.88427734 85.5949707 117.67480469 84.86181641 117.45898438 84.10644531 C117 82 117 82 117 78 C107.43 78 97.86 78 88 78 C87.34 81.3 86.68 84.6 86 88 C85.50555725 90.02745187 84.99051116 92.05023427 84.4375 94.0625 C84.18871094 94.98160156 83.93992187 95.90070313 83.68359375 96.84765625 C83 99 83 99 82 100 C79.40640678 100.08851529 76.83960309 100.11525945 74.24609375 100.09765625 C73.47064713 100.0962413 72.6952005 100.09482635 71.89625549 100.09336853 C69.40996506 100.08775345 66.9237634 100.07519846 64.4375 100.0625 C62.75586067 100.05748694 61.07421994 100.0529237 59.39257812 100.04882812 C55.26168434 100.03777913 51.13085724 100.02050445 47 100 C46.54149658 99.03175293 46.08299316 98.06350586 45.6105957 97.06591797 C43.89541725 93.44987853 42.16876397 89.83941683 40.4387207 86.23046875 C39.69375157 84.67238026 38.95183744 83.11282703 38.21313477 81.55175781 C37.14633301 79.29874157 36.0683906 77.0513487 34.98828125 74.8046875 C34.66410721 74.1138205 34.33993317 73.42295349 34.00593567 72.71115112 C31.84984436 68.26201781 29.68795945 64.38206452 26 61 C22.7 60.34 19.4 59.68 16 59 C16 72.53 16 86.06 16 100 C10.72 100 5.44 100 0 100 C0 67 0 34 0 0 Z M16 18 C16 25.92 16 33.84 16 42 C20.764375 42.0928125 20.764375 42.0928125 25.625 42.1875 C26.6145166 42.21481201 27.6040332 42.24212402 28.62353516 42.27026367 C33.80137867 42.31893352 37.61232178 42.07967951 42 39 C45.14703137 34.69784439 44.63192249 29.07794858 44 24 C42.19881522 20.99802536 41.09667268 19.54833634 38 18 C36.3325394 17.91573906 34.66174813 17.89274857 32.9921875 17.90234375 C31.65969971 17.90609009 31.65969971 17.90609009 30.30029297 17.90991211 C29.16994629 17.91901611 28.03959961 17.92812012 26.875 17.9375 C23.28625 17.958125 19.6975 17.97875 16 18 Z M101 28 C99.85750172 32.23499198 98.71825348 36.47084057 97.58203125 40.70751953 C97.1949072 42.14916689 96.80689038 43.59057482 96.41796875 45.03173828 C95.85963754 47.10126699 95.30450502 49.1716308 94.75 51.2421875 C94.41484375 52.4885498 94.0796875 53.73491211 93.734375 55.01904297 C92.92026546 57.81197593 92.92026546 57.81197593 93 60 C98.94 60 104.88 60 111 60 C109.62167807 52.68017382 107.87642407 45.54756759 105.875 38.375 C105.59785156 37.37082031 105.32070313 36.36664063 105.03515625 35.33203125 C104.35989931 32.88713545 103.68147179 30.44316934 103 28 C102.34 28 101.68 28 101 28 Z " fill="#106CB1" transform="translate(426,184)"/>
<path d="M0 0 C7.92 0 15.84 0 24 0 C25.43911461 7.4749756 26.87430931 14.95068354 28.30266571 22.42772198 C28.96610571 25.89979761 29.63124018 29.37153047 30.30029297 32.8425293 C31.06987322 36.83546163 31.83199885 40.82978537 32.59375 44.82421875 C32.83436157 46.06709152 33.07497314 47.30996429 33.32287598 48.59049988 C33.54310425 49.75132584 33.76333252 50.91215179 33.99023438 52.1081543 C34.18564819 53.12741501 34.38106201 54.14667572 34.58239746 55.19682312 C34.97742489 57.84846353 35.07921091 60.32439122 35 63 C35.66 63 36.32 63 37 63 C37.04567612 62.35036789 37.09135223 61.70073578 37.13841248 61.03141785 C37.71652522 53.75539093 38.87088477 46.70676485 40.28515625 39.55078125 C40.50570175 38.41215134 40.72624725 37.27352142 40.95347595 36.10038757 C41.65139015 32.5034119 42.35681332 28.90795798 43.0625 25.3125 C43.5402129 22.85751899 44.01743122 20.40244169 44.49414062 17.94726562 C45.65613189 11.9635158 46.8282902 5.9818869 48 0 C55.59 0 63.18 0 71 0 C71 33 71 66 71 100 C66.38 100 61.76 100 57 100 C56.67 78.22 56.34 56.44 56 34 C52.04 55.78 48.08 77.56 44 100 C38.72 100 33.44 100 28 100 C26.58243392 92.41109429 25.16536141 84.82209673 23.74914646 77.23293877 C23.09145229 73.70862074 22.43354583 70.18434262 21.77514648 66.66015625 C21.13921698 63.2561993 20.50385523 59.85213682 19.86887932 56.44800186 C19.50978351 54.52368249 19.15010685 52.59947154 18.79042053 50.67526245 C18.46019142 48.90410568 18.46019142 48.90410568 18.12329102 47.09716797 C17.93009781 46.06236298 17.7369046 45.02755798 17.53785706 43.96139526 C16.99625534 40.97938219 16.49826006 37.98956038 16 35 C15.67 56.45 15.34 77.9 15 100 C10.05 100 5.1 100 0 100 C0 67 0 34 0 0 Z " fill="#106CB1" transform="translate(905,184)"/>
<path d="M0 0 C1.11219024 6.15300672 2.22299717 12.30626145 3.33270264 18.4597168 C3.73564497 20.69348693 4.13884289 22.92721098 4.54229736 25.16088867 C6.89844628 38.20881172 9.22901847 51.26050091 11.49609375 64.32421875 C11.8991294 66.63892307 12.30220501 68.95362044 12.70532227 71.26831055 C13.28728606 74.61109157 13.86714658 77.95416401 14.44015503 81.29849243 C14.97300574 84.40827648 15.51321465 87.51670742 16.0546875 90.625 C16.20751694 91.53033981 16.36034637 92.43567963 16.51780701 93.36845398 C17.83672607 104.06445934 17.83672607 104.06445934 23.10177612 112.78369141 C23.72819 113.18507324 24.35460388 113.58645508 25 114 C29.30096422 111.32102309 29.30096422 111.32102309 31.56772423 107.01652336 C31.77405956 104.55587838 31.79927488 102.15251116 31.76049805 99.68334961 C31.76940567 98.75270187 31.77831329 97.82205414 31.78749084 96.86320496 C31.80877202 93.79220115 31.78646915 90.72329591 31.76171875 87.65234375 C31.76322107 85.51672654 31.76665085 83.38110988 31.77192688 81.24549866 C31.77625843 76.77235453 31.75941747 72.29993131 31.72729492 67.8269043 C31.68749009 62.09083447 31.69682254 56.35611465 31.72152996 50.62000179 C31.73570498 46.21131809 31.72563304 41.80295033 31.70801735 37.39428902 C31.70216409 35.27916786 31.70347495 33.16401442 31.71204185 31.04890251 C31.72002435 28.09428791 31.69581744 25.14165929 31.6628418 22.18725586 C31.67139191 21.31182129 31.67994202 20.43638672 31.68875122 19.53442383 C31.64664509 14.46702195 31.64664509 14.46702195 28.50935364 10.59767151 C27.68126694 10.07043991 26.85318024 9.54320831 26 9 C25.1875 6.25 25.1875 6.25 25 4 C28.91611687 3.7996511 32.83288397 3.61716387 36.75 3.4375 C37.84183594 3.38142578 38.93367187 3.32535156 40.05859375 3.26757812 C61.51993641 2.31515168 61.51993641 2.31515168 69 8 C76.38112852 15.04880283 79.07620233 23.00151027 79.3125 33.125 C79.20325289 42.79336952 76.51362562 50.36957139 69.80859375 57.40625 C66.91631885 59.95495013 63.93902017 62 60 62 C61.92757984 68.33894141 63.86773318 74.67393416 65.81665039 81.00634766 C66.47807879 83.16073296 67.13663038 85.31600369 67.79223633 87.47216797 C68.73543325 90.57236557 69.68895133 93.66922516 70.64453125 96.765625 C70.9352803 97.72929993 71.22602936 98.69297485 71.52558899 99.68585205 C71.80565292 100.58648376 72.08571686 101.48711548 72.37426758 102.41503906 C72.61631424 103.20557678 72.8583609 103.9961145 73.10774231 104.81060791 C74.11371167 107.27902189 75.20608072 109.02688877 77 111 C80.59067962 112.28842537 80.59067962 112.28842537 84 113 C84.33 114.98 84.66 116.96 85 119 C78.73 119 72.46 119 66 119 C60.39 100.52 54.78 82.04 49 63 C46.36 62.67 43.72 62.34 41 62 C41.11871643 67.71098536 41.24299438 73.42181325 41.37231445 79.13256836 C41.41549192 81.07329054 41.45717831 83.01404652 41.49731445 84.95483398 C41.55543566 87.75254477 41.61900716 90.55008814 41.68359375 93.34765625 C41.70030624 94.2083522 41.71701874 95.06904816 41.73423767 95.95582581 C41.84942875 100.69349161 41.9777854 105.35611831 43 110 C45.94236782 112.21168225 45.94236782 112.21168225 49 114 C49.875 116.25 49.875 116.25 50 118 C47.14512885 118.95162372 45.39545683 119.12163139 42.43676758 119.11352539 C41.51603958 119.11344986 40.59531158 119.11337433 39.64668274 119.11329651 C38.65597275 119.10813522 37.66526276 119.10297394 36.64453125 119.09765625 C35.62775803 119.0962413 34.6109848 119.09482635 33.56340027 119.09336853 C30.31307036 119.08776707 27.06280912 119.07521432 23.8125 119.0625 C21.61002704 119.05748519 19.40755299 119.05292225 17.20507812 119.04882812 C11.80336196 119.03779717 6.40168588 119.02105762 1 119 C1.30859375 116.1171875 1.30859375 116.1171875 2 113 C5.0625 111.125 5.0625 111.125 8 110 C7.50474533 102.24670272 6.34814601 94.66487203 5.01635742 87.02001953 C4 81.17298245 4 81.17298245 4 79 C-3.59 79 -11.18 79 -19 79 C-19.33 82.63 -19.66 86.26 -20 90 C-20.29729631 91.8395209 -20.62089991 93.67558082 -21 95.5 C-22.05893072 100.97641039 -22.59141092 106.44103798 -23 112 C-21.68 112 -20.36 112 -19 112 C-18.67 114.31 -18.34 116.62 -18 119 C-23.94 119 -29.88 119 -36 119 C-35 113 -35 113 -33.07788086 111.16577148 C-30.06402661 108.02443662 -29.59475157 104.48599525 -28.75390625 100.34765625 C-28.55213272 99.41091568 -28.35035919 98.47417511 -28.14247131 97.50904846 C-25.26031292 83.88579577 -22.7046373 70.19008419 -20.06835938 56.51757812 C-19.89357748 55.61121298 -19.71879559 54.70484783 -19.53871727 53.77101707 C-18.64047735 49.10707691 -17.74760187 44.44218877 -16.86303711 39.77563477 C-15.99446922 35.19610441 -15.11177622 30.61949334 -14.21972847 26.04448128 C-13.88555275 24.31637349 -13.55663858 22.58723918 -13.23322868 20.85708427 C-12.78335775 18.4532698 -12.31554864 16.05359687 -11.84350586 13.65405273 C-11.71613037 12.94918228 -11.58875488 12.24431183 -11.45751953 11.51808167 C-10.55645469 7.06611875 -9.15268919 4.26930564 -6 1 C-4 0 -4 0 0 0 Z M42.31958008 11.94824219 C40.48771504 16.18474782 40.62587277 19.89159607 40.70703125 24.45703125 C40.71127609 25.35999435 40.71552094 26.26295746 40.71989441 27.19328308 C40.73663689 30.0666635 40.77428084 32.93933291 40.8125 35.8125 C40.82755257 37.7649638 40.84123997 39.71743864 40.85351562 41.66992188 C40.88652592 46.44688697 40.93827765 51.22332309 41 56 C43.72977064 56.08126109 46.4571017 56.14061663 49.1875 56.1875 C49.95642578 56.21263672 50.72535156 56.23777344 51.51757812 56.26367188 C56.18886928 56.32381725 59.22150547 56.05675962 63 53 C68.59189087 44.85181616 69.97576164 36.36700038 68.6875 26.640625 C67.53790365 20.52313016 65.32766641 16.26542934 60.80859375 11.8671875 C57.2921196 9.52939244 55.06905785 9.43304771 50.875 9.4375 C49.65554688 9.41558594 48.43609375 9.39367187 47.1796875 9.37109375 C43.93217987 9.67413082 43.93217987 9.67413082 42.31958008 11.94824219 Z M-7 20 C-8.37110301 25.36433733 -9.61875541 30.73183144 -10.7265625 36.15625 C-10.87910492 36.9028186 -11.03164734 37.64938721 -11.18881226 38.4185791 C-11.50752883 39.98471712 -11.82511227 41.55108614 -12.14160156 43.11767578 C-12.46400954 44.70659348 -12.78986047 46.29481644 -13.11914062 47.88232422 C-13.60008747 50.20131196 -14.07066246 52.52219943 -14.5390625 54.84375 C-14.68590485 55.54294556 -14.83274719 56.24214111 -14.98403931 56.96252441 C-15.11772919 57.63682495 -15.25141907 58.31112549 -15.38916016 59.00585938 C-15.50748199 59.58573608 -15.62580383 60.16561279 -15.74771118 60.76306152 C-16.13025391 64.15490646 -16 67.58665106 -16 71 C-10.06 71 -4.12 71 2 71 C1.42593667 61.26218507 0.1424226 51.83114966 -1.52905273 42.23046875 C-1.9426462 39.84532244 -2.34187339 37.45804494 -2.74023438 35.0703125 C-3.00175431 33.54412496 -3.26409319 32.01807748 -3.52734375 30.4921875 C-3.6451268 29.78287079 -3.76290985 29.07355408 -3.88426208 28.34274292 C-4.48533457 24.95221191 -5.05806552 22.91290172 -7 20 Z " fill="#156FB3" transform="translate(616,166)"/>
<path d="M0 0 C45.22029703 0 45.22029703 0 50.98828125 4.578125 C51.42527344 5.12984375 51.86226562 5.6815625 52.3125 6.25 C52.76238281 6.79140625 53.21226563 7.3328125 53.67578125 7.890625 C57.32070431 13.69669714 58.55735458 18.55001234 58.5 25.3125 C58.49718018 26.05653076 58.49436035 26.80056152 58.49145508 27.56713867 C58.24804921 35.88908573 54.9721955 41.51135778 50 48 C50.75796875 48.22945312 51.5159375 48.45890625 52.296875 48.6953125 C55.58385069 50.28180077 56.47451825 51.72585606 58.25 54.875 C58.75015625 55.73867187 59.2503125 56.60234375 59.765625 57.4921875 C63.78373269 65.65555818 62.95836508 75.93704976 60.375 84.4375 C58.49788257 89.37728271 56.2805618 93.76479645 52 97 C36.04166104 103.83928813 17.36215552 100 0 100 C0 67 0 34 0 0 Z M16 18 C16 24.93 16 31.86 16 39 C21.0428125 39.12375 21.0428125 39.12375 26.1875 39.25 C27.23832764 39.28641602 28.28915527 39.32283203 29.37182617 39.36035156 C33.74859079 39.41239095 36.29968768 39.42528377 40.11328125 37.109375 C43.31954807 33.52472887 43.27151217 30.91400976 43.2265625 26.26171875 C42.92266365 23.22796987 41.90951945 21.35017778 40 19 C37.49502996 17.74751498 35.79146726 17.88625594 32.9921875 17.90234375 C32.00605469 17.90556641 31.01992187 17.90878906 30.00390625 17.91210938 C28.45509766 17.92467773 28.45509766 17.92467773 26.875 17.9375 C25.83472656 17.94201172 24.79445313 17.94652344 23.72265625 17.95117188 C21.14841313 17.96298033 18.57419947 17.98091615 16 18 Z M16 57 C16 65.58 16 74.16 16 83 C18.990625 83.04125 21.98125 83.0825 25.0625 83.125 C26.45480835 83.15231201 26.45480835 83.15231201 27.87524414 83.18017578 C32.98236035 83.21400858 37.19677599 82.78477033 42 81 C45.20104059 77.69225805 45.9492213 74.7743751 46.25 70.1875 C46.16746907 66.10597014 45.43578296 63.37866669 43 60 C37.15430979 56.7387202 32.15194105 56.62893352 25.5625 56.8125 C22.406875 56.874375 19.25125 56.93625 16 57 Z " fill="#106CB1" transform="translate(1366,184)"/>
<path d="M0 0 C43.64 0 43.64 0 49.625 3.5625 C56.75812608 10.88333993 58.3630202 18.70171705 58.28515625 28.6015625 C57.68604287 35.74168091 54.89243657 41.75810368 50 47 C50.45890625 47.32871094 50.9178125 47.65742188 51.390625 47.99609375 C57.39046545 52.64723057 60.16029171 57.42482467 61.53125 64.89453125 C62.63285347 74.64622563 61.38308125 83.65529273 56 92 C52.45774297 96.19477806 50.14977749 97.42511125 45 100 C30.15 100 15.3 100 0 100 C0 67 0 34 0 0 Z M15 18 C15 24.93 15 31.86 15 39 C18.56377018 39.13510502 22.12241117 39.23417099 25.6875 39.3125 C26.69490234 39.35439453 27.70230469 39.39628906 28.74023438 39.43945312 C34.845357 39.56569318 34.845357 39.56569318 40.14453125 36.76171875 C42.78545572 32.83091117 43.31454296 29.68413977 43 25 C41.64913319 21.97663142 40.32414606 20.32414606 38 18 C35.57402049 17.72212332 35.57402049 17.72212332 32.7734375 17.8046875 C31.7421875 17.81113281 30.7109375 17.81757813 29.6484375 17.82421875 C28.02808594 17.84935547 28.02808594 17.84935547 26.375 17.875 C24.74304687 17.88853516 24.74304687 17.88853516 23.078125 17.90234375 C20.38532351 17.92596482 17.69263465 17.96183667 15 18 Z M15 57 C15 65.58 15 74.16 15 83 C17.990625 83.04125 20.98125 83.0825 24.0625 83.125 C25.45480835 83.15231201 25.45480835 83.15231201 26.87524414 83.18017578 C33.00233448 83.22076555 38.66033981 83.15495017 43.375 78.8125 C46.04879152 74.18478391 46.26019481 70.53514939 45.375 65.3125 C43.80620679 61.53313453 42.45099143 60.13632803 39 58 C36.02681797 57.05133556 33.34505584 56.88240349 30.234375 56.90234375 C29.43225586 56.90484131 28.63013672 56.90733887 27.80371094 56.90991211 C26.79598633 56.91901611 25.78826172 56.92812012 24.75 56.9375 C21.5325 56.958125 18.315 56.97875 15 57 Z " fill="#106CB1" transform="translate(1580,184)"/>
<path d="M0 0 C45 0 45 0 52.8125 4.6875 C58.86178772 11.08246131 60.70610452 19.37114614 61.25 27.9375 C60.94415416 36.9869386 58.99570479 44.95292549 52.48046875 51.53515625 C49.84039304 53.82767769 47.13697759 55.50234618 44 57 C44.825 57.825 45.65 58.65 46.5 59.5 C51.11852237 64.8991177 53.91543492 71.37850703 56.93261719 77.75048828 C58.03744521 80.07891586 59.16198355 82.3971144 60.2890625 84.71484375 C61.02699809 86.24693554 61.76400326 87.77947587 62.5 89.3125 C62.85046387 90.03550293 63.20092773 90.75850586 63.56201172 91.50341797 C66 96.6532844 66 96.6532844 66 100 C60.06 100 54.12 100 48 100 C46.98369889 98.06902788 45.96748912 96.13800765 44.95166016 94.20678711 C44.05960433 92.51280035 43.16602358 90.81961582 42.27099609 89.12719727 C39.89459718 84.62833084 37.54518378 80.1190274 35.25 75.578125 C34.80962402 74.71614502 34.36924805 73.85416504 33.91552734 72.96606445 C33.06790859 71.30530255 32.22937795 69.63986471 31.40087891 67.96948242 C31.01335449 67.21513916 30.62583008 66.4607959 30.2265625 65.68359375 C29.89221191 65.01900146 29.55786133 64.35440918 29.21337891 63.66967773 C27.62324112 61.48155856 26.56572395 60.90450392 24 60 C21.36 59.67 18.72 59.34 16 59 C16 72.53 16 86.06 16 100 C10.72 100 5.44 100 0 100 C0 67 0 34 0 0 Z M16 18 C16 25.92 16 33.84 16 42 C20.7953125 42.061875 20.7953125 42.061875 25.6875 42.125 C27.18543091 42.15231201 27.18543091 42.15231201 28.71362305 42.18017578 C34.12066114 42.21395274 38.58667921 42.24094073 42.75 38.375 C44.52583175 35.00091968 45.11959936 31.77089744 45 28 C43.54113611 23.31627908 42.2248912 20.51954604 38 18 C35.49173285 17.59010829 35.49173285 17.59010829 32.796875 17.70703125 C31.91354492 17.71452393 31.03021484 17.7220166 30.12011719 17.72973633 C28.45190918 17.77070435 28.45190918 17.77070435 26.75 17.8125 C23.2025 17.874375 19.655 17.93625 16 18 Z " fill="#106CB1" transform="translate(1439,184)"/>
<path d="M0 0 C46.14285714 0 46.14285714 0 52.8125 5.1875 C60.38783021 14.92721026 60.74271848 25.09174698 60 37 C58.96666416 43.59408382 55.98079714 48.57007443 51 53 C48.71773077 54.54901004 46.47640394 55.76179803 44 57 C44.44988281 57.52722656 44.89976563 58.05445313 45.36328125 58.59765625 C50.55434173 65.16190307 54.21777692 72.09042682 57.8125 79.625 C58.51403198 81.09078491 58.51403198 81.09078491 59.22973633 82.58618164 C61.93813309 88.37508023 63.95100843 93.8530253 66 100 C59.73 100 53.46 100 47 100 C45.90300781 97.68742187 44.80601563 95.37484375 43.67578125 92.9921875 C42.59883374 90.73728127 41.51892219 88.48381765 40.4387207 86.23046875 C39.69375157 84.67238026 38.95183744 83.11282703 38.21313477 81.55175781 C37.14633301 79.29874157 36.0683906 77.0513487 34.98828125 74.8046875 C34.66410721 74.1138205 34.33993317 73.42295349 34.00593567 72.71115112 C31.84984436 68.26201781 29.68795945 64.38206452 26 61 C22.7 60.34 19.4 59.68 16 59 C16 72.53 16 86.06 16 100 C10.72 100 5.44 100 0 100 C0 67 0 34 0 0 Z M16 18 C16 25.92 16 33.84 16 42 C20.764375 42.0928125 20.764375 42.0928125 25.625 42.1875 C26.6145166 42.21481201 27.6040332 42.24212402 28.62353516 42.27026367 C33.80137867 42.31893352 37.61232178 42.07967951 42 39 C45.14703137 34.69784439 44.63192249 29.07794858 44 24 C42.19881522 20.99802536 41.09667268 19.54833634 38 18 C36.3325394 17.91573906 34.66174813 17.89274857 32.9921875 17.90234375 C31.65969971 17.90609009 31.65969971 17.90609009 30.30029297 17.90991211 C29.16994629 17.91901611 28.03959961 17.92812012 26.875 17.9375 C23.28625 17.958125 19.6975 17.97875 16 18 Z " fill="#106CB1" transform="translate(1237,184)"/>
<path d="M0 0 C4.95 0 9.9 0 15 0 C21.26002619 12.23355232 26.90763946 24.64525694 32.375 37.25 C33.58347356 40.02635343 34.79315833 42.80217342 36.0038147 45.57757568 C36.74879894 47.28642935 37.49234425 48.9959113 38.23422241 50.70611572 C38.56862335 51.47502136 38.90302429 52.243927 39.24755859 53.03613281 C39.6843544 54.04296112 39.6843544 54.04296112 40.12997437 55.07012939 C41.03248749 57.07206299 42.01793401 59.03586802 43 61 C43.33 40.87 43.66 20.74 44 0 C48.95 0 53.9 0 59 0 C59 33 59 66 59 100 C53.72 100 48.44 100 43 100 C37.29208513 88.78662492 31.94842115 77.46486469 26.81591797 65.9777832 C25.60865453 63.27591872 24.39652697 60.57627646 23.18359375 57.87695312 C22.4059743 56.14335281 21.62862043 54.40963333 20.8515625 52.67578125 C20.31409897 51.47735344 20.31409897 51.47735344 19.76577759 50.25471497 C19.43137665 49.50590561 19.09697571 48.75709625 18.75244141 47.9855957 C18.4612442 47.33436234 18.170047 46.68312897 17.87002563 46.01216125 C16.86768599 43.69398933 15.93798065 41.34495163 15 39 C14.67 59.13 14.34 79.26 14 100 C9.38 100 4.76 100 0 100 C0 67 0 34 0 0 Z " fill="#106CB1" transform="translate(1063,184)"/>
<path d="M0 0 C41.44736842 0 41.44736842 0 47.8125 5.375 C48.534375 6.24125 49.25625 7.1075 50 8 C51.0209375 9.1446875 51.0209375 9.1446875 52.0625 10.3125 C63.94194474 26.79043947 63.61815849 50.05170651 60.75390625 69.3203125 C58.75201169 79.09121758 55.145152 89.3385634 46.9453125 95.55859375 C32.01088879 105.21399956 22.86664303 100 0 100 C0 67 0 34 0 0 Z M16 18 C16 39.45 16 60.9 16 83 C27.93462683 83.82837975 27.93462683 83.82837975 38.74609375 79.58984375 C42.64574251 75.48445813 44.22709629 71.54081624 45 66 C45.16435547 64.83984375 45.16435547 64.83984375 45.33203125 63.65625 C46.84764022 50.88471845 47.99265799 33.86673021 40 23 C32.40433333 15.77485366 28.00979854 18 16 18 Z " fill="#106CB1" transform="translate(1136,184)"/>
<path d="M0 0 C9.01237801 7.28306563 10.50963665 15.34510381 11.8046875 26.5234375 C8.34246135 27.59067711 5.16429484 27.62517236 1.5546875 27.5859375 C-0.06179688 27.57240234 -0.06179688 27.57240234 -1.7109375 27.55859375 C-2.53078125 27.54699219 -3.350625 27.53539062 -4.1953125 27.5234375 C-4.43765625 26.83636719 -4.68 26.14929688 -4.9296875 25.44140625 C-5.26484375 24.54035156 -5.6 23.63929688 -5.9453125 22.7109375 C-6.27015625 21.81761719 -6.595 20.92429688 -6.9296875 20.00390625 C-8.36679858 17.18734595 -9.4352006 16.04249189 -12.1953125 14.5234375 C-14.64465657 14.08904941 -14.64465657 14.08904941 -17.1953125 14.2109375 C-18.0409375 14.21480469 -18.8865625 14.21867187 -19.7578125 14.22265625 C-23.09457501 14.63440419 -25.37726333 15.51061472 -27.5078125 18.1484375 C-28.55988956 21.78288551 -27.81459918 24.80771745 -27.1953125 28.5234375 C-23.86758326 29.86307613 -20.52759862 31.16341197 -17.17578125 32.44140625 C-15.24452319 33.19723103 -13.313542 33.95376356 -11.3828125 34.7109375 C-10.42310547 35.07251953 -9.46339844 35.43410156 -8.47460938 35.80664062 C0.39466665 39.32408047 7.14460659 43.82818883 11.11328125 52.7265625 C13.01334319 57.66457658 13.02430101 61.91436374 13.0546875 67.1484375 C13.0753125 68.01339844 13.0959375 68.87835938 13.1171875 69.76953125 C13.17934869 80.13490931 10.42319319 86.96212544 3.16796875 94.4140625 C-4.06247361 100.86768048 -13.05795581 100.200906 -22.30322266 99.69189453 C-28.60934262 99.13044643 -34.00591282 96.29602066 -38.1953125 91.5234375 C-43.88512587 83.36049502 -46.74639798 74.4429762 -46.1953125 64.5234375 C-38.7703125 63.5334375 -38.7703125 63.5334375 -31.1953125 62.5234375 C-30.3909375 65.58625 -30.3909375 65.58625 -29.5703125 68.7109375 C-27.9298288 74.26338508 -27.9298288 74.26338508 -24.5703125 78.8359375 C-19.97749704 81.13234523 -16.23367342 81.28171924 -11.1953125 80.5234375 C-7.55310606 79.12854993 -6.49415055 77.98715172 -4.3828125 74.7109375 C-2.88036042 70.67803982 -2.39942365 67.52452946 -4.015625 63.4609375 C-6.82302005 58.85011649 -13.90321039 57.23120103 -18.71435547 55.35986328 C-29.85849747 51.00603901 -37.00228683 47.84593608 -42.1953125 36.5234375 C-45.23501175 28.66504451 -44.88042658 19.61374062 -42.25390625 11.6796875 C-38.93603381 4.40883832 -34.44533584 -0.44530345 -26.9453125 -3.3515625 C-17.79338618 -5.96639859 -8.00051401 -5.38112864 0 0 Z " fill="#106CB1" transform="translate(1763.1953125,186.4765625)"/>
<path d="M0 0 C18.15 0 36.3 0 55 0 C55 5.94 55 11.88 55 18 C42.13 18 29.26 18 16 18 C16 24.93 16 31.86 16 39 C27.88 39 39.76 39 52 39 C52 44.94 52 50.88 52 57 C40.12 57 28.24 57 16 57 C16 65.58 16 74.16 16 83 C29.53 83 43.06 83 57 83 C57 88.61 57 94.22 57 100 C38.19 100 19.38 100 0 100 C0 67 0 34 0 0 Z " fill="#106CB1" transform="translate(1512,184)"/>
<path d="M0 0 C18.15 0 36.3 0 55 0 C55 5.94 55 11.88 55 18 C42.13 18 29.26 18 16 18 C16 24.93 16 31.86 16 39 C27.88 39 39.76 39 52 39 C52 44.94 52 50.88 52 57 C40.12 57 28.24 57 16 57 C16 65.58 16 74.16 16 83 C29.2 83 42.4 83 56 83 C56 88.61 56 94.22 56 100 C37.52 100 19.04 100 0 100 C0 67 0 34 0 0 Z " fill="#106CB1" transform="translate(1653,184)"/>
<path d="M0 0 C5.61 0 11.22 0 17 0 C18.97704824 5.14036544 20.76231137 10.2796838 22.29663086 15.57080078 C22.60951805 16.63609764 22.60951805 16.63609764 22.9287262 17.72291565 C23.61031507 20.04621453 24.28762664 22.37073591 24.96484375 24.6953125 C25.44396846 26.33193167 25.92334827 27.96847618 26.40296936 29.60494995 C27.66174821 33.90265613 28.91683402 38.20143241 30.17120361 42.50042725 C31.18622996 45.9769026 32.20382559 49.45262321 33.22157955 52.92830086 C38.71176929 71.67804462 38.71176929 71.67804462 41.406353 80.9617691 C42.00203355 83.006982 42.60362062 85.05039343 43.20584106 87.09368896 C43.57305267 88.35167297 43.94026428 89.60965698 44.31860352 90.90576172 C44.64385513 92.01249237 44.96910675 93.11922302 45.30421448 94.25949097 C46 97 46 97 46 100 C40.39 100 34.78 100 29 100 C27.02 93.07 25.04 86.14 23 79 C9.14 78.505 9.14 78.505 -5 78 C-6.23077353 83.3684924 -6.23077353 83.3684924 -7.45263672 88.73901367 C-7.61006348 89.41681885 -7.76749023 90.09462402 -7.9296875 90.79296875 C-8.08679199 91.4789917 -8.24389648 92.16501465 -8.40576172 92.87182617 C-9.08577615 95.30719422 -10.0609295 97.65232375 -11 100 C-16.61 100 -22.22 100 -28 100 C-18.66666667 66.66666667 -9.33333333 33.33333333 0 0 Z M8 27 C6.85588819 31.2162498 5.7166931 35.43378778 4.58203125 39.65258789 C4.19535961 41.08752245 3.80734788 42.5220966 3.41796875 43.95629883 C2.8584468 46.01810868 2.30376041 48.08116756 1.75 50.14453125 C1.41484375 51.38565674 1.0796875 52.62678223 0.734375 53.90551758 C-0.1154522 56.95641674 -0.1154522 56.95641674 0 60 C5.94 60 11.88 60 18 60 C15.47934745 48.79709979 12.58176599 37.90677102 9 27 C8.67 27 8.34 27 8 27 Z " fill="#106CB1" transform="translate(1010,184)"/>
<path d="M0 0 C6.53380325 5.08322454 10.74062842 12.34862947 12.4609375 20.4375 C12.74609375 22.9140625 12.74609375 22.9140625 12.87109375 26.6640625 C10.74716869 27.3341459 8.62191851 28.00003047 6.49609375 28.6640625 C5.31273437 29.0353125 4.129375 29.4065625 2.91015625 29.7890625 C-0.12890625 30.6640625 -0.12890625 30.6640625 -2.12890625 30.6640625 C-2.45761719 29.66826172 -2.45761719 29.66826172 -2.79296875 28.65234375 C-4.94449637 22.66130138 -6.62189459 19.01146174 -12.12890625 15.6640625 C-16.14340497 14.51706287 -18.2986695 14.38178201 -22.25390625 15.7265625 C-29.596024 20.67451142 -31.48067252 26.22531586 -33.12890625 34.6640625 C-33.52396088 39.00798236 -33.54995537 43.30474607 -33.50390625 47.6640625 C-33.51550781 48.76234375 -33.52710938 49.860625 -33.5390625 50.9921875 C-33.50220642 61.3610304 -32.09412771 70.67954034 -25.12890625 78.6640625 C-21.72469785 81.27395561 -18.3066084 81.09623858 -14.12890625 80.6640625 C-8.4465652 77.99001965 -6.24865275 74.33030796 -4.12890625 68.6640625 C-3.33281655 66.0043992 -2.71149497 63.38280987 -2.12890625 60.6640625 C1.82059079 61.29222748 5.07001403 62.5286154 8.68359375 64.2265625 C9.65941406 64.68160156 10.63523437 65.13664062 11.640625 65.60546875 C12.74470703 66.12947266 12.74470703 66.12947266 13.87109375 66.6640625 C11.28398083 78.90552362 7.73165093 89.80914531 -3.12109375 96.98046875 C-10.26568779 100.73596049 -18.17512617 100.82844196 -25.9375 99.00390625 C-34.94283276 95.8376477 -40.99127449 89.12544786 -45.12890625 80.6640625 C-52.51152413 61.79737236 -53.73820109 36.710641 -46.12890625 17.6640625 C-44.39192497 14.09721324 -42.45178857 10.87547905 -40.12890625 7.6640625 C-39.51015625 6.7359375 -38.89140625 5.8078125 -38.25390625 4.8515625 C-28.15469442 -5.54468498 -12.32808044 -7.73615323 0 0 Z " fill="#106CB1" transform="translate(311.12890625,186.3359375)"/>
<path d="M0 0 C7.26 0 14.52 0 22 0 C22 1.65 22 3.3 22 5 C20.78437378 5.59035034 20.78437378 5.59035034 19.54418945 6.19262695 C16.85140149 7.68977945 16.85140149 7.68977945 16.51425171 9.95663452 C16.32336711 12.61972789 16.28188044 15.24795815 16.29296875 17.91796875 C16.27784744 18.89034988 16.26272614 19.86273102 16.24714661 20.86457825 C16.20413488 23.97245224 16.19541853 27.07935753 16.1875 30.1875 C16.16436621 32.29364579 16.13900322 34.39976836 16.11132812 36.50585938 C16.04414124 41.67110559 16.02331971 46.83362342 16 52 C24.25 52 32.5 52 41 52 C40.67 37.48 40.34 22.96 40 8 C37.525 7.01 37.525 7.01 35 6 C34.505 3.03 34.505 3.03 34 0 C41.59 0 49.18 0 57 0 C56 5 56 5 53.47396851 6.74205017 C50.73442747 9.24238362 50.62527011 9.58232956 50.39199829 13.06739807 C50.37447272 14.75392653 50.38467716 16.44087807 50.41650391 18.12719727 C50.41299927 19.51072891 50.41299927 19.51072891 50.40942383 20.92221069 C50.40780897 23.97085172 50.44184522 27.01797981 50.4765625 30.06640625 C50.48335125 32.18342035 50.48807385 34.300442 50.49081421 36.41746521 C50.50149494 40.85364708 50.5282027 45.28932551 50.56787109 49.7253418 C50.61876952 55.41741472 50.64388271 61.1091984 50.65880775 66.80146885 C50.67358709 72.22315493 50.69881892 77.6447728 50.7265625 83.06640625 C50.73147327 84.1042734 50.73638405 85.14214054 50.74144363 86.21145821 C50.75769535 89.14178031 50.78110019 92.07194761 50.80712891 95.00219727 C50.81138885 95.87344742 50.8156488 96.74469757 50.82003784 97.64234924 C50.85627556 101.00337645 50.9299999 103.7899997 52 107 C54.50447516 108.21869929 54.50447516 108.21869929 57 109 C57 110.98 57 112.96 57 115 C54.49899426 116.25050287 52.99656948 116.02993449 50.2109375 115.87890625 C49.26992188 115.83056641 48.32890625 115.78222656 47.359375 115.73242188 C46.37453125 115.67634766 45.3896875 115.62027344 44.375 115.5625 C43.38242187 115.51029297 42.38984375 115.45808594 41.3671875 115.40429688 C38.91115432 115.27441051 36.4555064 115.13943836 34 115 C34.375 112.078125 34.375 112.078125 35 109 C37 107.75 37 107.75 39 107 C40.18691493 104.62617015 40.15572867 103.10821107 40.20532227 100.45849609 C40.22526749 99.51767181 40.24521271 98.57684753 40.26576233 97.60751343 C40.28247482 96.58976837 40.29918732 95.57202332 40.31640625 94.5234375 C40.33718735 93.48305328 40.35796844 92.44266907 40.37937927 91.37075806 C40.44489872 88.03890751 40.50377092 84.7069765 40.5625 81.375 C40.60568294 79.11978326 40.64929715 76.86457473 40.69335938 74.609375 C40.80139619 69.07299802 40.90045202 63.53656224 41 58 C32.75 58 24.5 58 16 58 C16.33 74.17 16.66 90.34 17 107 C18.98 107.99 20.96 108.98 23 110 C22.67 111.65 22.34 113.3 22 115 C19.07330309 115.97556564 17.55938679 116.0606341 14.55078125 115.87890625 C13.70322266 115.83056641 12.85566406 115.78222656 11.98242188 115.73242188 C10.66081055 115.64831055 10.66081055 115.64831055 9.3125 115.5625 C8.41982422 115.51029297 7.52714844 115.45808594 6.60742188 115.40429688 C4.4045844 115.2747182 2.20221127 115.13975754 0 115 C-0.3125 112.75 -0.3125 112.75 0 110 C0.8178447 109.48008484 1.63568939 108.96016968 2.47831726 108.42449951 C5.2438626 105.76553563 5.3831706 105.36704844 5.63923645 101.76055908 C5.67145659 99.99332288 5.67615234 98.22545855 5.65942383 96.45800781 C5.66990753 95.49182022 5.68039124 94.52563263 5.69119263 93.53016663 C5.71998738 90.33749452 5.71364571 87.14590393 5.70703125 83.953125 C5.72014355 81.73922361 5.73544633 79.52533419 5.75285339 77.3114624 C5.79277062 71.4851452 5.80289822 65.65914046 5.80688477 59.83270264 C5.81620346 53.8870695 5.85360911 47.94162094 5.88867188 41.99609375 C5.95331633 30.33073784 5.98650023 18.66551934 6 7 C5.195625 6.855625 4.39125 6.71125 3.5625 6.5625 C1 6 1 6 0 5 C0 3.35 0 1.7 0 0 Z " fill="#126AB1" transform="translate(761,170)"/>
<path d="M0 0 C19.47 0 38.94 0 59 0 C59 5.94 59 11.88 59 18 C51.74 18 44.48 18 37 18 C37 45.06 37 72.12 37 100 C32.05 100 27.1 100 22 100 C22 72.94 22 45.88 22 18 C14.74 18 7.48 18 0 18 C0 12.06 0 6.12 0 0 Z " fill="#106CB1" transform="translate(359,184)"/>
<path d="M0 0 C4.186875 -0.0825 8.37375 -0.165 12.6875 -0.25 C13.99936279 -0.28641602 15.31122559 -0.32283203 16.6628418 -0.36035156 C17.70609619 -0.3703418 18.74935059 -0.38033203 19.82421875 -0.390625 C20.88729248 -0.41157227 21.95036621 -0.43251953 23.0456543 -0.45410156 C26.72539081 0.11149714 28.34495733 1.4462002 31 4 C33.59329653 8.32216088 33.55388667 13.10156476 33 18 C31.30239493 22.73542467 29.091918 25.12459816 25 28 C25.87398438 29.04220703 25.87398438 29.04220703 26.765625 30.10546875 C29.04881119 33.06323268 30.89727853 36.07023743 32.75 39.3125 C33.36359375 40.38113281 33.9771875 41.44976562 34.609375 42.55078125 C35.29773438 43.76314453 35.29773438 43.76314453 36 45 C36.17317245 44.46573395 36.34634491 43.9314679 36.52476501 43.38101196 C38.32345091 37.83281818 40.12433576 32.2853417 41.92651367 26.73828125 C42.59928193 24.66652542 43.27148457 22.59458583 43.94311523 20.52246094 C44.90721243 17.54834561 45.87332531 14.57489172 46.83984375 11.6015625 C47.14091537 10.67131256 47.441987 9.74106262 47.75218201 8.78262329 C48.1725045 7.49151138 48.1725045 7.49151138 48.60131836 6.17431641 C48.97105019 5.03514267 48.97105019 5.03514267 49.34825134 3.87295532 C50 2 50 2 51 0 C54.3 0 57.6 0 61 0 C71.55786133 31.67358398 71.55786133 31.67358398 72.26602173 33.80978394 C72.7844492 35.35678911 73.31309475 36.90038798 73.84896851 38.44143677 C74.123992 39.23943695 74.3990155 40.03743713 74.68237305 40.85961914 C74.93448044 41.58113663 75.18658783 42.30265411 75.44633484 43.04603577 C76 45 76 45 76 48 C72.7 48 69.4 48 66 48 C65.34 44.7 64.68 41.4 64 38 C58.72 38 53.44 38 48 38 C47.690625 39.464375 47.38125 40.92875 47.0625 42.4375 C46.125 46.875 46.125 46.875 45 48 C43.5112814 48.08669432 42.018555 48.10703494 40.52734375 48.09765625 C39.62822266 48.09443359 38.72910156 48.09121094 37.80273438 48.08789062 C36.38444336 48.07532227 36.38444336 48.07532227 34.9375 48.0625 C33.98810547 48.05798828 33.03871094 48.05347656 32.06054688 48.04882812 C29.70696935 48.0370011 27.35351523 48.02052025 25 48 C24.40832031 46.87980469 23.81664062 45.75960937 23.20703125 44.60546875 C22.40953392 43.13244428 21.61131896 41.65980817 20.8125 40.1875 C20.42513672 39.44951172 20.03777344 38.71152344 19.63867188 37.95117188 C17.31325847 33.70392921 15.57126474 31.06667263 11 29 C10.34 28.67 9.68 28.34 9 28 C9 34.6 9 41.2 9 48 C6.03 48 3.06 48 0 48 C0 32.16 0 16.32 0 0 Z M9 9 C9 12.63 9 16.26 9 20 C16.20067469 20.62470799 16.20067469 20.62470799 22.75 18.375 C24.42703268 15.1886379 23.9822999 13.40026888 23 10 C21.88873341 8.66098208 21.88873341 8.66098208 19.05859375 8.90234375 C17.86363281 8.91394531 16.66867187 8.92554687 15.4375 8.9375 C14.23996094 8.94652344 13.04242188 8.95554687 11.80859375 8.96484375 C10.41833984 8.98224609 10.41833984 8.98224609 9 9 Z M55 14 C53.68 18.62 52.36 23.24 51 28 C53.97 28 56.94 28 60 28 C58.51868325 20.84207314 58.51868325 20.84207314 56 14 C55.67 14 55.34 14 55 14 Z " fill="#00994B" transform="translate(418,108)"/>
<path d="M0 0 C0.10751587 0.61417282 0.21503174 1.22834564 0.32580566 1.86112976 C2.7472336 15.69181337 5.17292191 29.52173911 7.60475349 43.35059738 C9.00694128 51.32529427 10.40165536 59.30123073 11.78341675 67.27949524 C12.49672147 71.39295882 13.21532528 75.50548528 13.93505859 79.61782837 C14.26743399 81.52444461 14.59738849 83.43148462 14.92480469 85.33895874 C15.37973286 87.98753769 15.84319945 90.63449304 16.30859375 93.28125 C16.43636703 94.03823685 16.56414032 94.79522369 16.69578552 95.57514954 C18.09603262 105.14213038 18.09603262 105.14213038 23.1875 112.75 C23.785625 113.1625 24.38375 113.575 25 114 C25 115.65 25 117.3 25 119 C17.08 119 9.16 119 1 119 C1.33 117.02 1.66 115.04 2 113 C4.5625 111.625 4.5625 111.625 7 111 C7.1791866 103.84000212 6.49178644 97.02234482 5.5 89.9375 C5.005 86.328125 4.51 82.71875 4 79 C-3.59 79 -11.18 79 -19 79 C-19.33 82.3 -19.66 85.6 -20 89 C-20.50360412 91.14031749 -21.00739217 93.28061682 -21.5234375 95.41796875 C-22.53154512 100.87992889 -22.70061885 106.46144867 -23 112 C-22.35546875 112.28617187 -21.7109375 112.57234375 -21.046875 112.8671875 C-19 114 -19 114 -18.25 116.125 C-18.1675 116.74375 -18.085 117.3625 -18 118 C-21.61867559 119.2062252 -24.92506251 119.10816918 -28.6875 119.0625 C-29.38939453 119.05798828 -30.09128906 119.05347656 -30.81445312 119.04882812 C-32.54300538 119.03706927 -34.27151365 119.01913454 -36 119 C-35.49304694 113.4235163 -35.49304694 113.4235163 -33.09912109 111.3671875 C-30.03000062 107.9061277 -29.56866686 104.33715303 -28.6640625 99.875 C-28.45971588 98.92343018 -28.25536926 97.97186035 -28.04483032 96.99145508 C-27.34080646 93.66518511 -26.66680844 90.3339279 -26 87 C-25.7469812 85.73623535 -25.4939624 84.4724707 -25.23327637 83.17041016 C-23.380082 73.870968 -21.58768878 64.55998137 -19.80523682 55.24676514 C-18.6638573 49.28629964 -17.51654673 43.32697511 -16.36830521 37.36782837 C-15.97527204 35.3245226 -15.58431825 33.28082819 -15.19369507 31.23706055 C-14.70953452 28.71740264 -14.21946709 26.19887091 -13.72283936 23.68164062 C-13.22828641 21.16273211 -12.75127878 18.64033256 -12.28936768 16.11523438 C-12.05030701 14.87580078 -11.81124634 13.63636719 -11.56494141 12.359375 C-11.35962799 11.25561523 -11.15431458 10.15185547 -10.94277954 9.01464844 C-9.8728075 5.59328702 -8.43768736 3.60344878 -6 1 C-4 0 -4 0 0 0 Z M-7 18 C-9.4679427 27.26422441 -11.39703126 36.60379162 -13.21704102 46.01147461 C-13.6916103 48.45869567 -14.17466989 50.90414554 -14.65820312 53.34960938 C-14.96405259 54.91917136 -15.26940925 56.48882947 -15.57421875 58.05859375 C-15.71792404 58.78259872 -15.86162933 59.5066037 -16.00968933 60.25254822 C-16.72084164 63.9681674 -17 67.17742115 -17 71 C-10.73 71 -4.46 71 2 71 C1.33284581 59.76174072 -0.61839895 48.82554274 -2.5625 37.75 C-2.89565949 35.82950981 -3.22834558 33.90893742 -3.56054688 31.98828125 C-4.368244 27.32455551 -5.18233644 22.66198826 -6 18 C-6.33 18 -6.66 18 -7 18 Z " fill="#1971B4" transform="translate(855,166)"/>
<path d="M0 0 C3.3 0 6.6 0 10 0 C10.62829712 1.94604126 10.62829712 1.94604126 11.26928711 3.93139648 C12.81862885 8.72747685 14.37195575 13.52225847 15.92651367 18.31665039 C16.59980971 20.39507186 17.27201269 22.47384775 17.94311523 24.55297852 C18.90584304 27.53494797 19.87244664 30.51563633 20.83984375 33.49609375 C21.14091537 34.43150497 21.441987 35.3669162 21.75218201 36.33067322 C22.032397 37.19149002 22.312612 38.05230682 22.60131836 38.93920898 C22.84780624 39.70087875 23.09429413 40.46254852 23.34825134 41.24729919 C23.86177446 43.00054611 23.86177446 43.00054611 25 44 C25.17317245 43.46351334 25.34634491 42.92702667 25.52476501 42.37428284 C27.32169315 36.80945129 29.12285109 31.24600196 30.92651367 25.68334961 C31.59980971 23.60492814 32.27201269 21.52615225 32.94311523 19.44702148 C33.90584304 16.46505203 34.87244664 13.48436367 35.83984375 10.50390625 C36.14091537 9.56849503 36.441987 8.6330838 36.75218201 7.66932678 C37.032397 6.80850998 37.312612 5.94769318 37.60131836 5.06079102 C37.97105019 3.91828636 37.97105019 3.91828636 38.34825134 2.75270081 C39 1 39 1 40 0 C41.68608966 -0.07205511 43.37500659 -0.08386068 45.0625 -0.0625 C45.98160156 -0.05347656 46.90070313 -0.04445313 47.84765625 -0.03515625 C48.55792969 -0.02355469 49.26820312 -0.01195313 50 0 C52.14253461 6.35165062 54.27806171 12.70562541 56.40869141 19.0612793 C57.13461036 21.22393315 57.86214259 23.38604619 58.59130859 25.54760742 C59.63802068 28.65142919 60.67894997 31.75713815 61.71875 34.86328125 C62.21091003 36.31653557 62.21091003 36.31653557 62.7130127 37.79914856 C63.01332397 38.6998558 63.31363525 39.60056305 63.62304688 40.52856445 C63.88952026 41.32132278 64.15599365 42.11408112 64.43054199 42.93086243 C65 45 65 45 65 48 C61.7 48 58.4 48 55 48 C54.01 45.03 53.02 42.06 52 39 C47.05 38.67 42.1 38.34 37 38 C36.690625 39.464375 36.38125 40.92875 36.0625 42.4375 C35.125 46.875 35.125 46.875 34 48 C32.58429877 48.08651611 31.164405 48.10704904 29.74609375 48.09765625 C28.89208984 48.09443359 28.03808594 48.09121094 27.15820312 48.08789062 C26.26037109 48.07951172 25.36253906 48.07113281 24.4375 48.0625 C23.53580078 48.05798828 22.63410156 48.05347656 21.70507812 48.04882812 C19.47002411 48.03700244 17.23500398 48.01906638 15 48 C13.515 43.545 13.515 43.545 12 39 C7.05 38.67 2.1 38.34 -3 38 C-3.99 41.3 -4.98 44.6 -6 48 C-9.3 48 -12.6 48 -16 48 C-14.20814736 42.2876822 -12.41153401 36.5768915 -10.6105957 30.86743164 C-9.99927536 28.92708374 -9.38923166 26.98633312 -8.78051758 25.04516602 C-7.90265174 22.24647518 -7.02012396 19.44929031 -6.13671875 16.65234375 C-5.86784348 15.7916478 -5.5989682 14.93095184 -5.32194519 14.04417419 C-3.79426559 9.22501551 -2.07550838 4.61072962 0 0 Z M4 13 C3.3299166 15.12392506 2.66403203 17.24917524 2 19.375 C1.62875 20.55835938 1.2575 21.74171875 0.875 22.9609375 C-0.09222606 25.79323439 -0.09222606 25.79323439 0 28 C2.97 28 5.94 28 9 28 C8.54705135 26.24859857 8.08741252 24.49892656 7.625 22.75 C7.24214844 21.28820312 7.24214844 21.28820312 6.8515625 19.796875 C6.10401491 17.34162697 5.22876183 15.24382595 4 13 Z M44 13 C42.68 17.95 41.36 22.9 40 28 C42.97 28 45.94 28 49 28 C48.54901762 26.06077578 48.08894441 24.12366406 47.625 22.1875 C47.24214844 20.56908203 47.24214844 20.56908203 46.8515625 18.91796875 C46.11267119 15.84466657 46.11267119 15.84466657 44 13 Z " fill="#00994A" transform="translate(1408,108)"/>
<path d="M0 0 C0.85948242 0.00193359 1.71896484 0.00386719 2.60449219 0.00585938 C13.49554268 0.07574847 24.37322149 0.59552451 35.25 1.125 C40.09985565 10.07753465 41.77297923 20.01406816 41.25 30.125 C39.36132812 29.85473633 39.36132812 29.85473633 37.25 29.125 C36.21679688 27.5144043 36.21679688 27.5144043 35.46875 25.44921875 C35.18386719 24.70349609 34.89898438 23.95777344 34.60546875 23.18945312 C34.18201172 22.01286133 34.18201172 22.01286133 33.75 20.8125 C31.28414574 13.63295751 31.28414574 13.63295751 26.25 8.125 C22.14222251 7.62200684 20.74124017 7.79750655 17.25 10.125 C16.96400654 13.26503713 16.87215839 16.20688693 16.90942383 19.34814453 C16.90898575 20.3042865 16.90854767 21.26042847 16.90809631 22.24554443 C16.91019194 25.41650579 16.93355955 28.58694313 16.95703125 31.7578125 C16.96262445 33.95213533 16.96689585 36.14646189 16.96989441 38.34078979 C16.98136489 44.12443329 17.01085107 49.90785182 17.04400635 55.69140625 C17.07465977 61.58981279 17.08838963 67.48825557 17.10351562 73.38671875 C17.13571861 84.96624484 17.18694157 96.54560373 17.25 108.125 C20.88 109.115 24.51 110.105 28.25 111.125 C27.92 113.105 27.59 115.085 27.25 117.125 C23.01417673 117.17438628 18.77850535 117.21071263 14.54248047 117.23486328 C13.10104453 117.24492963 11.65962905 117.2585838 10.21826172 117.27587891 C8.14806066 117.30010012 6.07812924 117.31147641 4.0078125 117.3203125 C2.13826904 117.33602295 2.13826904 117.33602295 0.23095703 117.35205078 C-2.75 117.125 -2.75 117.125 -4.75 115.125 C-4.66015625 113.140625 -4.66015625 113.140625 -3.75 111.125 C-1.68359375 109.859375 -1.68359375 109.859375 0.8125 108.875 C2.05193359 108.37226563 2.05193359 108.37226563 3.31640625 107.859375 C4.27353516 107.49585938 4.27353516 107.49585938 5.25 107.125 C5.29626405 94.51232773 5.33183895 81.89967552 5.35362434 69.28693581 C5.36407824 63.43084347 5.37826667 57.57480902 5.40087891 51.71875 C5.4225501 46.07129723 5.43455651 40.42390028 5.43975449 34.77640915 C5.44346056 32.61775203 5.45069719 30.4590981 5.46146011 28.30046463 C5.47589897 25.2856909 5.47798114 22.27115019 5.47705078 19.25634766 C5.48424133 18.35651657 5.49143188 17.45668549 5.49884033 16.52958679 C5.71343518 11.84483938 5.71343518 11.84483938 3.25 8.125 C-0.48180764 8.20792906 -2.30382579 8.75055798 -5.1796875 11.1640625 C-8.23434862 14.68295783 -10.08929228 18.24770979 -12.0625 22.4375 C-12.42150391 23.17806641 -12.78050781 23.91863281 -13.15039062 24.68164062 C-14.02619585 26.49163808 -14.88940791 28.30771993 -15.75 30.125 C-16.74 30.125 -17.73 30.125 -18.75 30.125 C-18.94381157 23.65815385 -18.35116434 17.97428502 -16.875 11.6875 C-16.70097656 10.88634766 -16.52695312 10.08519531 -16.34765625 9.25976562 C-15.01175709 3.38675709 -15.01175709 3.38675709 -12.75 1.125 C-8.58368023 -0.24176932 -4.33784907 -0.02369484 0 0 Z " fill="#1972B5" transform="translate(718.75,168.875)"/>
<path d="M0 0 C4.95 0 9.9 0 15 0 C15 33 15 66 15 100 C10.05 100 5.1 100 0 100 C0 67 0 34 0 0 Z " fill="#106DB1" transform="translate(1310,184)"/>
<path d="M0 0 C4.95 0 9.9 0 15 0 C15 33 15 66 15 100 C10.05 100 5.1 100 0 100 C0 67 0 34 0 0 Z " fill="#106CB2" transform="translate(1209,184)"/>
<path d="M0 0 C4.95 0 9.9 0 15 0 C15 33 15 66 15 100 C10.05 100 5.1 100 0 100 C0 67 0 34 0 0 Z " fill="#106CB1" transform="translate(336,184)"/>
<path d="M0 0 C4.29 0 8.58 0 13 0 C14.43935174 3.59837935 15.46390114 6.58755514 16.2890625 10.30078125 C16.48709473 11.18161377 16.68512695 12.06244629 16.88916016 12.9699707 C17.1319873 14.07300537 17.37481445 15.17604004 17.625 16.3125 C18.40875 19.839375 19.1925 23.36625 20 27 C21.98 18.09 23.96 9.18 26 0 C30.29 0 34.58 0 39 0 C39 15.84 39 31.68 39 48 C36.36 48 33.72 48 31 48 C30.505 35.625 30.505 35.625 30 23 C28.39538933 30.85255024 28.39538933 30.85255024 26.79907227 38.70678711 C26.59854248 39.6788208 26.3980127 40.65085449 26.19140625 41.65234375 C25.98717041 42.65257568 25.78293457 43.65280762 25.57250977 44.68334961 C25 47 25 47 24 48 C21.03 48 18.06 48 15 48 C13.35 40.08 11.7 32.16 10 24 C9.67 31.92 9.34 39.84 9 48 C6.03 48 3.06 48 0 48 C0 32.16 0 16.32 0 0 Z " fill="#009A4B" transform="translate(956,108)"/>
<path d="M0 0 C4.29 0 8.58 0 13 0 C14.98 8.91 16.96 17.82 19 27 C20.93355482 18.48930618 20.93355482 18.48930618 22.85913086 9.97680664 C23.10026611 8.92356201 23.34140137 7.87031738 23.58984375 6.78515625 C23.83597412 5.70113525 24.08210449 4.61711426 24.33569336 3.50024414 C25 1 25 1 26 0 C30.29 0 34.58 0 39 0 C39 15.84 39 31.68 39 48 C36.03 48 33.06 48 30 48 C29.505 36.12 29.505 36.12 29 24 C27.35 31.92 25.7 39.84 24 48 C21.03 48 18.06 48 15 48 C13.02407508 42.64186125 11.95165862 37.21397766 10.875 31.625 C10.25625 28.44875 9.6375 25.2725 9 22 C8.67 30.58 8.34 39.16 8 48 C5.36 48 2.72 48 0 48 C0 32.16 0 16.32 0 0 Z " fill="#009A4B" transform="translate(1228,108)"/>
<path d="M0 0 C4.29 0 8.58 0 13 0 C13.62654001 2.47878693 14.25160253 4.95792212 14.875 7.4375 C15.05844971 8.16654541 15.24189941 8.89559082 15.4309082 9.64672852 C16.41119291 13.5656899 17.34708361 17.48561836 18.1875 21.4375 C18.62178528 24.79917579 18.62178528 24.79917579 20 26 C21.98 17.42 23.96 8.84 26 0 C30.29 0 34.58 0 39 0 C39 15.84 39 31.68 39 48 C36.36 48 33.72 48 31 48 C30.505 35.13 30.505 35.13 30 22 C28.39646122 29.80772034 28.39646122 29.80772034 26.79907227 37.61669922 C26.59854248 38.58623535 26.3980127 39.55577148 26.19140625 40.5546875 C25.88505249 42.04718018 25.88505249 42.04718018 25.57250977 43.56982422 C25 46 25 46 24 48 C21.03 48 18.06 48 15 48 C13.02 38.76 11.04 29.52 9 20 C8.67 29.24 8.34 38.48 8 48 C5.36 48 2.72 48 0 48 C0 32.16 0 16.32 0 0 Z " fill="#009A4B" transform="translate(618,108)"/>
<path d="M0 0 C4.00125 -0.103125 8.0025 -0.20625 12.125 -0.3125 C13.37555176 -0.35802002 14.62610352 -0.40354004 15.91455078 -0.45043945 C25.10530113 -0.56519427 25.10530113 -0.56519427 28.7421875 2.39453125 C32.30784527 6.50922629 32.26506429 9.15141038 32.234375 14.4453125 C31.92838292 17.78062613 30.77617832 20.18771767 29 23 C29.639375 23.61875 30.27875 24.2375 30.9375 24.875 C34.49260251 28.53783289 34.33186214 31.45762634 34.2890625 36.38671875 C33.8388439 40.45693824 32.40512352 42.70154489 30 46 C26.45986775 48.36008817 24.98878045 48.23463644 20.80078125 48.1953125 C19.71192627 48.19031738 18.62307129 48.18532227 17.5012207 48.18017578 C16.11894287 48.16196777 14.73666504 48.14375977 13.3125 48.125 C8.919375 48.08375 4.52625 48.0425 0 48 C0 32.16 0 16.32 0 0 Z M9 9 C9 12.3 9 15.6 9 19 C10.5675 19.061875 12.135 19.12375 13.75 19.1875 C14.63171875 19.22230469 15.5134375 19.25710937 16.421875 19.29296875 C19.5021956 18.94293232 20.81571758 18.17419335 23 16 C23.41702122 12.9157691 23.41702122 12.9157691 23 10 C21.88873341 8.66098208 21.88873341 8.66098208 19.05859375 8.90234375 C17.86363281 8.91394531 16.66867187 8.92554687 15.4375 8.9375 C14.23996094 8.94652344 13.04242187 8.95554687 11.80859375 8.96484375 C10.41833984 8.98224609 10.41833984 8.98224609 9 9 Z M9 28 C9 31.63 9 35.26 9 39 C11.10353495 39.0810206 13.20795952 39.13919907 15.3125 39.1875 C16.48425781 39.22230469 17.65601563 39.25710937 18.86328125 39.29296875 C21.95954437 39.26941378 21.95954437 39.26941378 23.89453125 37.64453125 C25.47793508 35.28900824 25.41637778 33.77585184 25 31 C23.94652728 29.22542093 23.94652728 29.22542093 22 28 C18.79861932 27.6363838 18.79861932 27.6363838 15.3125 27.8125 C14.13300781 27.83957031 12.95351562 27.86664063 11.73828125 27.89453125 C10.38283203 27.94673828 10.38283203 27.94673828 9 28 Z " fill="#00994B" transform="translate(1274,108)"/>
<path d="M0 0 C3.3 0 6.6 0 10 0 C14.29 8.58 18.58 17.16 23 26 C23.33 17.42 23.66 8.84 24 0 C26.97 0 29.94 0 33 0 C33 15.84 33 31.68 33 48 C29.7 48 26.4 48 23 48 C18.71 39.42 14.42 30.84 10 22 C9.67 30.58 9.34 39.16 9 48 C6.03 48 3.06 48 0 48 C0 32.16 0 16.32 0 0 Z " fill="#009A4B" transform="translate(845,108)"/>
<path d="M0 0 C3.3 0 6.6 0 10 0 C14.29 8.58 18.58 17.16 23 26 C23.33 17.42 23.66 8.84 24 0 C26.97 0 29.94 0 33 0 C33 15.84 33 31.68 33 48 C29.7 48 26.4 48 23 48 C18.71 39.42 14.42 30.84 10 22 C9.67 30.58 9.34 39.16 9 48 C6.03 48 3.06 48 0 48 C0 32.16 0 16.32 0 0 Z " fill="#009A4A" transform="translate(737,108)"/>
<path d="M0 0 C2.97 0 5.94 0 9 0 C10.95948675 3.58270376 12.91738827 7.16627142 14.875 10.75 C15.43058594 11.76578125 15.98617188 12.7815625 16.55859375 13.828125 C17.09355469 14.8078125 17.62851563 15.7875 18.1796875 16.796875 C18.67194824 17.69760742 19.16420898 18.59833984 19.67138672 19.52636719 C20.81951154 21.66396378 21.91487238 23.82974475 23 26 C23.33 17.42 23.66 8.84 24 0 C26.97 0 29.94 0 33 0 C33 15.84 33 31.68 33 48 C29.7 48 26.4 48 23 48 C18.71 39.42 14.42 30.84 10 22 C9.67 30.58 9.34 39.16 9 48 C6.03 48 3.06 48 0 48 C0 32.16 0 16.32 0 0 Z " fill="#009A4B" transform="translate(1098,108)"/>
<path d="M0 0 C6.31125 -0.061875 6.31125 -0.061875 12.75 -0.125 C14.0709668 -0.14320801 15.39193359 -0.16141602 16.75292969 -0.18017578 C17.79868164 -0.1851709 18.84443359 -0.19016602 19.921875 -0.1953125 C20.99018555 -0.20578613 22.05849609 -0.21625977 23.15917969 -0.22705078 C26.02373775 0.00189722 27.61240928 0.44280227 30 2 C33.67906582 6.75770103 33.54815159 11.07272199 33.4296875 16.890625 C32.80333001 21.42317553 31.38817262 23.01518126 28 26 C27.34 26.66 26.68 27.32 26 28 C26.54269531 28.85722656 27.08539062 29.71445313 27.64453125 30.59765625 C28.3674461 31.75244232 29.09008773 32.90739946 29.8125 34.0625 C30.34713867 34.90458008 30.34713867 34.90458008 30.89257812 35.76367188 C33.35463667 39.71651816 35.25584361 43.68087454 37 48 C33.17601292 48.61238227 29.7989971 48.85005184 26 48 C23.16481338 45.08280385 21.67975608 41.67251018 20 38 C19.19690434 36.48359577 18.36596579 34.98140059 17.5 33.5 C17.1596875 32.8709375 16.819375 32.241875 16.46875 31.59375 C14.62834449 29.33909439 14.62834449 29.33909439 9 28 C9 34.6 9 41.2 9 48 C6.03 48 3.06 48 0 48 C0 32.16 0 16.32 0 0 Z M9 9 C9 12.63 9 16.26 9 20 C10.753125 20.020625 12.50625 20.04125 14.3125 20.0625 C15.29863281 20.07410156 16.28476563 20.08570313 17.30078125 20.09765625 C20.09963849 20.12329862 20.09963849 20.12329862 23 19 C24.38125018 16.23749964 24.19079306 14.05268901 24 11 C22.11153817 8.67133771 22.11153817 8.67133771 18.9609375 8.8046875 C17.18589844 8.83949219 17.18589844 8.83949219 15.375 8.875 C13.59222656 8.90207031 13.59222656 8.90207031 11.7734375 8.9296875 C10.40058594 8.96449219 10.40058594 8.96449219 9 9 Z " fill="#00994B" transform="translate(1641,108)"/>
<path d="M0 0 C5.77341352 2.73477483 8.80962454 6.7467893 11.75 12.3125 C14.75858761 21.07231033 14.26777438 32.6093989 10.34765625 40.94140625 C7.72979619 44.94028234 4.26105747 47.86947126 0 50 C-5.80241278 50.48887732 -11.15748286 50.85545438 -16.5 48.375 C-22.73531116 42.4514544 -25.57495907 37.84843198 -26.3359375 29.16796875 C-26.50552659 11.88684064 -26.50552659 11.88684064 -20.24609375 5.09765625 C-13.87279368 -0.5571507 -8.43860917 -0.74004855 0 0 Z M-12.8125 11.1875 C-17.40938697 17.09778324 -17.68715555 22.73280952 -17 30 C-15.95327344 33.97182545 -14.29270239 37.42310248 -11 40 C-8.11138291 41.44430855 -6.20352299 41.37688506 -3 41 C1.08266053 37.84521687 2.97458173 35.03387152 4 30 C4.70567799 22.92150694 4.38563528 16.85240294 0 11 C-4.64582329 7.90278447 -8.33679714 7.70639778 -12.8125 11.1875 Z " fill="#00994A" transform="translate(325,107)"/>
<path d="M0 0 C2.97 0 5.94 0 9 0 C13.62 9.24 18.24 18.48 23 28 C23.33 18.76 23.66 9.52 24 0 C26.64 0 29.28 0 32 0 C32 15.84 32 31.68 32 48 C29.03 48 26.06 48 23 48 C21.04051325 44.41729624 19.08261173 40.83372858 17.125 37.25 C16.56941406 36.23421875 16.01382812 35.2184375 15.44140625 34.171875 C14.90644531 33.1921875 14.37148437 32.2125 13.8203125 31.203125 C13.32805176 30.30239258 12.83579102 29.40166016 12.32861328 28.47363281 C11.18048846 26.33603622 10.08512762 24.17025525 9 22 C8.67 30.58 8.34 39.16 8 48 C5.36 48 2.72 48 0 48 C0 32.16 0 16.32 0 0 Z " fill="#009A4B" transform="translate(1477,108)"/>
<path d="M0 0 C23 0 23 0 29 4 C30.42578125 6 30.42578125 6 31.3125 8 C31.61800781 8.66 31.92351562 9.32 32.23828125 10 C35.47658293 18.50261773 35.48125561 30.26452621 32.3125 38.8125 C30.17017341 43.29537557 27.4362554 45.7818723 23 48 C15.41 48 7.82 48 0 48 C0 32.16 0 16.32 0 0 Z M9 9 C9 18.9 9 28.8 9 39 C12.63 39 16.26 39 20 39 C24.68958373 34.31041627 25.29120751 30.59929499 25.3125 24.0625 C25.32925781 22.87785156 25.34601563 21.69320312 25.36328125 20.47265625 C24.96212885 16.63798436 24.02762507 14.26224455 22 11 C18.21417472 8.07549967 18.21417472 8.07549967 9 9 Z " fill="#009A4B" transform="translate(1018,108)"/>
<path d="M0 0 C2.97 0 5.94 0 9 0 C9.33 5.94 9.66 11.88 10 18 C10.87140625 16.700625 11.7428125 15.40125 12.640625 14.0625 C22.05582068 0.64524823 22.05582068 0.64524823 27.6015625 -1.1953125 C30.59316577 -1.13105372 33.13584901 -0.84980304 36 0 C34.71975774 2.76235156 33.33443081 4.95734445 31.328125 7.2421875 C30.82925781 7.83386719 30.33039063 8.42554687 29.81640625 9.03515625 C28.76936768 10.26496964 27.7092867 11.48379343 26.63671875 12.69140625 C26.14300781 13.28566406 25.64929688 13.87992188 25.140625 14.4921875 C24.45274902 15.28665283 24.45274902 15.28665283 23.75097656 16.09716797 C22.54894906 19.14287746 23.76557244 21.06599159 25 24 C25.89551813 25.798935 26.83717698 27.57553709 27.8203125 29.328125 C28.62275391 30.77445313 28.62275391 30.77445313 29.44140625 32.25 C29.99699219 33.24 30.55257813 34.23 31.125 35.25 C32.23556922 37.2322517 33.34253696 39.21652692 34.4453125 41.203125 C35.18031982 42.51265137 35.18031982 42.51265137 35.93017578 43.84863281 C37 46 37 46 37 48 C33.04 48 29.08 48 25 48 C20.545 38.595 20.545 38.595 16 29 C13.75201111 28.76631697 13.75201111 28.76631697 11.921875 31.04296875 C9.57658575 34.65147274 9.4096813 37.04102527 9.25 41.3125 C9.19328125 42.56675781 9.1365625 43.82101563 9.078125 45.11328125 C9.05234375 46.06589844 9.0265625 47.01851562 9 48 C6.03 48 3.06 48 0 48 C0 32.16 0 16.32 0 0 Z " fill="#00984A" transform="translate(260,108)"/>
<path d="M0 0 C4.07694634 1.82759664 5.49320116 3.20601514 7.875 6.9375 C8.96270464 9.89847373 9.27485974 11.8849229 9 15 C4.545 15.495 4.545 15.495 0 16 C-0.99 14.02 -1.98 12.04 -3 10 C-5.97 10 -8.94 10 -12 10 C-11.94637216 12.43272192 -11.94637216 12.43272192 -11 15 C-8.45656989 16.5601236 -8.45656989 16.5601236 -5.3125 17.5625 C0.35459763 19.72299684 4.73444418 21.5078886 8.875 26.0625 C10.8497006 31.21866268 11.04257652 36.89469143 9.2734375 42.1640625 C7.21382545 46.09909364 4.9360894 48.10913352 1 50 C-4.6617622 50.73503579 -11.63867076 51.44889392 -16.6875 48.3125 C-21.5386139 43.4613861 -22.43601405 39.65503426 -23 33 C-18.545 32.505 -18.545 32.505 -14 32 C-13.319375 33.7015625 -13.319375 33.7015625 -12.625 35.4375 C-11.42904194 39.04721692 -11.42904194 39.04721692 -9 40 C-4.94857881 40.25860135 -3.45662331 40.30441554 0 38 C0.66685938 35.54327108 0.66685938 35.54327108 0 33 C-3.34361307 30.63733961 -6.67914307 29.34563792 -10.5625 28.125 C-15.94249062 26.24236533 -18.43886057 24.12227886 -21 19 C-21.53209766 13.66157758 -21.64057432 9.30402629 -19.25 4.4375 C-13.92691884 -1.32917125 -7.42388839 -0.73869536 0 0 Z " fill="#00994A" transform="translate(1553,107)"/>
<path d="M0 0 C4.43735679 1.91265379 5.60071033 3.25465928 7.875 7.5 C9 11 9 11 9 15 C4.545 15.495 4.545 15.495 0 16 C-0.99 14.02 -1.98 12.04 -3 10 C-5.64 10 -8.28 10 -11 10 C-11.33 11.65 -11.66 13.3 -12 15 C-10.46279297 15.58007812 -10.46279297 15.58007812 -8.89453125 16.171875 C-7.53367301 16.69744784 -6.17300593 17.22351584 -4.8125 17.75 C-4.13896484 18.00265625 -3.46542969 18.2553125 -2.77148438 18.515625 C2.13653292 20.43094882 6.50310847 22.50518078 9.3125 27.1875 C10.91264299 33.73353949 10.66258611 39.42871743 7.23828125 45.3359375 C5.07272105 48.2461225 3.51981987 49.01198039 0 50 C-5.86599751 50.59033606 -11.07432206 50.81081176 -16.5625 48.5 C-20.38120822 44.58337618 -22.7912289 40.50525325 -23.25 35 C-23.12625 34.01 -23.12625 34.01 -23 33 C-18.545 32.505 -18.545 32.505 -14 32 C-13.525625 33.134375 -13.05125 34.26875 -12.5625 35.4375 C-11.36377917 38.75740166 -11.36377917 38.75740166 -10 40 C-5.29509434 40.42448807 -5.29509434 40.42448807 -1 38.8125 C0.19340654 36.99043249 0.19340654 36.99043249 0.015625 34.5703125 C-0.80643256 31.65049184 -0.80643256 31.65049184 -4.203125 30.41015625 C-5.54530017 29.94105938 -6.89480513 29.4925383 -8.25 29.0625 C-14.25191768 27.14859369 -17.42294946 25.31178558 -21 20 C-22.57347512 15.52921253 -22.19659758 11.70543838 -20.9375 7.1875 C-15.93909096 -1.03568907 -8.88831735 -1.0969043 0 0 Z " fill="#00994A" transform="translate(519,107)"/>
<path d="M0 0 C4.09500567 3.04500422 5.22448028 5.63120881 6.125 10.625 C6.228125 11.676875 6.33125 12.72875 6.4375 13.8125 C1.9825 14.3075 1.9825 14.3075 -2.5625 14.8125 C-3.5525 12.8325 -4.5425 10.8525 -5.5625 8.8125 C-8.2025 8.8125 -10.8425 8.8125 -13.5625 8.8125 C-13.8925 10.4625 -14.2225 12.1125 -14.5625 13.8125 C-13.38171875 14.24820313 -12.2009375 14.68390625 -10.984375 15.1328125 C-9.42669335 15.73336446 -7.86942282 16.33498353 -6.3125 16.9375 C-5.53519531 17.22109375 -4.75789062 17.5046875 -3.95703125 17.796875 C1.22039434 19.83244404 3.79733975 21.68187932 6.4375 26.8125 C8.0789335 31.73680051 7.85113809 35.59226764 6.1875 40.5 C3.90404022 44.82226315 2.11708743 47.25263752 -2.5625 48.8125 C-14.91800525 49.8187561 -14.91800525 49.8187561 -19.1875 47.0625 C-19.97125 46.32 -20.755 45.5775 -21.5625 44.8125 C-22.160625 44.255625 -22.75875 43.69875 -23.375 43.125 C-25.21597937 39.53993492 -25.31584693 35.7929703 -25.5625 31.8125 C-22.9225 31.4825 -20.2825 31.1525 -17.5625 30.8125 C-17.28277344 31.39 -17.00304687 31.9675 -16.71484375 32.5625 C-15.47441917 34.859878 -14.28210415 36.84417505 -12.5625 38.8125 C-8.83540762 39.51936235 -6.8437169 39.57322253 -3.5625 37.625 C-2.36909346 35.80293249 -2.36909346 35.80293249 -2.546875 33.3828125 C-3.36893256 30.46299184 -3.36893256 30.46299184 -6.765625 29.22265625 C-8.10780017 28.75355938 -9.45730513 28.3050383 -10.8125 27.875 C-16.83109936 25.95577419 -19.9118674 24.07572407 -23.5625 18.8125 C-25.12561512 14.12315463 -25.08571579 10.29494475 -23.4375 5.625 C-17.88309473 -2.7066079 -8.9329788 -2.9776596 0 0 Z " fill="#00994A" transform="translate(589.5625,108.1875)"/>
<path d="M0 0 C2.97 0 5.94 0 9 0 C9 5.94 9 11.88 9 18 C13.62 18 18.24 18 23 18 C23 12.06 23 6.12 23 0 C25.97 0 28.94 0 32 0 C32 15.84 32 31.68 32 48 C29.03 48 26.06 48 23 48 C23 41.4 23 34.8 23 28 C18.38 28 13.76 28 9 28 C9 34.6 9 41.2 9 48 C6.03 48 3.06 48 0 48 C0 32.16 0 16.32 0 0 Z " fill="#009A4B" transform="translate(1737,108)"/>
<path d="M0 0 C9.9 0 19.8 0 30 0 C30 2.97 30 5.94 30 9 C23.07 9 16.14 9 9 9 C9 11.97 9 14.94 9 18 C15.6 18 22.2 18 29 18 C29 20.97 29 23.94 29 27 C22.4 27 15.8 27 9 27 C9 30.96 9 34.92 9 39 C16.26 39 23.52 39 31 39 C31 41.97 31 44.94 31 48 C20.77 48 10.54 48 0 48 C0 32.16 0 16.32 0 0 Z " fill="#009A4B" transform="translate(1191,108)"/>
<path d="M0 0 C9.9 0 19.8 0 30 0 C30 2.97 30 5.94 30 9 C23.07 9 16.14 9 9 9 C9 11.97 9 14.94 9 18 C15.27 18 21.54 18 28 18 C28 20.97 28 23.94 28 27 C21.73 27 15.46 27 9 27 C9 30.96 9 34.92 9 39 C16.26 39 23.52 39 31 39 C31 41.97 31 44.94 31 48 C20.77 48 10.54 48 0 48 C0 32.16 0 16.32 0 0 Z " fill="#009A4B" transform="translate(381,108)"/>
<path d="M0 0 C1.37478516 0.01740234 1.37478516 0.01740234 2.77734375 0.03515625 C3.69644531 0.04417969 4.61554688 0.05320312 5.5625 0.0625 C6.27277344 0.07410156 6.98304687 0.08570312 7.71484375 0.09765625 C9.85737836 6.44930687 11.99290546 12.80328166 14.12353516 19.15893555 C14.84945411 21.3215894 15.57698634 23.48370244 16.30615234 25.64526367 C17.35286443 28.74908544 18.39379372 31.8547944 19.43359375 34.9609375 C19.76170044 35.92977371 20.08980713 36.89860992 20.42785645 37.89680481 C20.72816772 38.79751205 21.028479 39.6982193 21.33789062 40.6262207 C21.60436401 41.41897903 21.8708374 42.21173737 22.14538574 43.02851868 C22.71484375 45.09765625 22.71484375 45.09765625 22.71484375 48.09765625 C19.41484375 48.09765625 16.11484375 48.09765625 12.71484375 48.09765625 C11.22984375 43.64265625 11.22984375 43.64265625 9.71484375 39.09765625 C4.76484375 38.76765625 -0.18515625 38.43765625 -5.28515625 38.09765625 C-5.59453125 39.56203125 -5.90390625 41.02640625 -6.22265625 42.53515625 C-7.16015625 46.97265625 -7.16015625 46.97265625 -8.28515625 48.09765625 C-9.80443663 48.16945589 -11.32683107 48.18157632 -12.84765625 48.16015625 C-13.67394531 48.15113281 -14.50023437 48.14210937 -15.3515625 48.1328125 C-15.98964844 48.12121094 -16.62773438 48.10960937 -17.28515625 48.09765625 C-16.65734813 42.35398224 -15.18815014 37.17612182 -13.37890625 31.69921875 C-13.09414429 30.82365326 -12.80938232 29.94808777 -12.51599121 29.04598999 C-11.91688706 27.20798623 -11.31499202 25.37089007 -10.71044922 23.53466797 C-9.78191132 20.71279474 -8.86295365 17.88793326 -7.9453125 15.0625 C-7.36123481 13.27455729 -6.7766186 11.48679039 -6.19140625 9.69921875 C-5.77731506 8.42747299 -5.77731506 8.42747299 -5.3548584 7.1300354 C-3.0433042 0.13005574 -3.0433042 0.13005574 0 0 Z M1.71484375 13.09765625 C0.39484375 18.04765625 -0.92515625 22.99765625 -2.28515625 28.09765625 C0.68484375 28.09765625 3.65484375 28.09765625 6.71484375 28.09765625 C6.26386137 26.15843203 5.80378816 24.22132031 5.33984375 22.28515625 C4.95699219 20.66673828 4.95699219 20.66673828 4.56640625 19.015625 C3.82751494 15.94232282 3.82751494 15.94232282 1.71484375 13.09765625 Z " fill="#00994A" transform="translate(1343.28515625,107.90234375)"/>
<path d="M0 0 C3.3 0 6.6 0 10 0 C13.66468248 8.67248887 16.55057475 17.55192378 19.42871094 26.50756836 C20.25851491 29.08898887 21.09369784 31.66862369 21.9296875 34.24804688 C22.45864311 35.88531662 22.98730019 37.52268285 23.515625 39.16015625 C23.8905307 40.31935326 23.8905307 40.31935326 24.27301025 41.50196838 C26 46.88349152 26 46.88349152 26 48 C22.7 48 19.4 48 16 48 C14.515 43.05 14.515 43.05 13 38 C8.05 38.33 3.1 38.66 -2 39 C-2.99 41.97 -3.98 44.94 -5 48 C-8.3 48 -11.6 48 -15 48 C-12.35896094 37.79724909 -9.08839269 27.82424929 -5.8125 17.8125 C-5.24780629 16.08015653 -4.68335127 14.34773524 -4.11914062 12.61523438 C-2.74884318 8.4092542 -1.3753227 4.2043395 0 0 Z M5 14 C3.13459373 18.70406799 1.63156995 22.94744036 1 28 C3.97 28 6.94 28 10 28 C8.68 23.38 7.36 18.76 6 14 C5.67 14 5.34 14 5 14 Z " fill="#00994A" transform="translate(1069,108)"/>
<path d="M0 0 C3.3 0 6.6 0 10 0 C14.11598952 9.65059679 17.13197389 19.62025155 20.25 29.625 C20.8095376 31.41026857 21.36943048 33.19542582 21.9296875 34.98046875 C23.29055966 39.31903945 24.64660883 43.65909012 26 48 C22.7 48 19.4 48 16 48 C13 40.25 13 40.25 13 38 C7.72 38 2.44 38 -3 38 C-3.33 40.31 -3.66 42.62 -4 45 C-4.33 45.99 -4.66 46.98 -5 48 C-8.3 48 -11.6 48 -15 48 C-12.35896094 37.79724909 -9.08839269 27.82424929 -5.8125 17.8125 C-5.24780629 16.08015653 -4.68335127 14.34773524 -4.11914062 12.61523438 C-2.74884318 8.4092542 -1.3753227 4.2043395 0 0 Z M4 15 C3.49487756 16.60256108 2.99608373 18.20711792 2.5 19.8125 C2.2215625 20.70582031 1.943125 21.59914062 1.65625 22.51953125 C0.87211649 25.05573395 0.87211649 25.05573395 1 28 C3.64 28 6.28 28 9 28 C8.45144652 23.428721 7.58255197 19.32564205 6 15 C5.34 15 4.68 15 4 15 Z " fill="#00994A" transform="translate(1612,108)"/>
<path d="M0 0 C3.3 0 6.6 0 10 0 C13.57434737 8.53679081 16.51758783 17.24648027 19.42871094 26.02539062 C20.25785398 28.52366467 21.09348623 31.0197057 21.9296875 33.515625 C22.45871879 35.10403834 22.98737851 36.69257549 23.515625 38.28125 C23.8905307 39.39989441 23.8905307 39.39989441 24.27301025 40.5411377 C26 45.76999812 26 45.76999812 26 48 C22.7 48 19.4 48 16 48 C14.515 43.545 14.515 43.545 13 39 C8.05 39 3.1 39 -2 39 C-2.99 41.97 -3.98 44.94 -5 48 C-8.3 48 -11.6 48 -15 48 C-10.04152004 31.98679266 -5.07369686 15.9771709 0 0 Z M5 14 C4.32968281 15.9570868 3.66385317 17.91571113 3 19.875 C2.62875 20.96554688 2.2575 22.05609375 1.875 23.1796875 C0.901228 25.82620854 0.901228 25.82620854 1 28 C3.97 28 6.94 28 10 28 C8.68 23.38 7.36 18.76 6 14 C5.67 14 5.34 14 5 14 Z " fill="#00994B" transform="translate(927,108)"/>
<path d="M0 0 C3.3 0 6.6 0 10 0 C13.57434737 8.53679081 16.51758783 17.24648027 19.42871094 26.02539062 C20.25785398 28.52366467 21.09348623 31.0197057 21.9296875 33.515625 C22.45871879 35.10403834 22.98737851 36.69257549 23.515625 38.28125 C23.8905307 39.39989441 23.8905307 39.39989441 24.27301025 40.5411377 C26 45.76999812 26 45.76999812 26 48 C22.7 48 19.4 48 16 48 C14.515 43.545 14.515 43.545 13 39 C8.05 39 3.1 39 -2 39 C-2.99 41.97 -3.98 44.94 -5 48 C-8.3 48 -11.6 48 -15 48 C-10.04152004 31.98679266 -5.07369686 15.9771709 0 0 Z M5 14 C4.32968281 15.9570868 3.66385317 17.91571113 3 19.875 C2.62875 20.96554688 2.2575 22.05609375 1.875 23.1796875 C0.901228 25.82620854 0.901228 25.82620854 1 28 C3.97 28 6.94 28 10 28 C8.68 23.38 7.36 18.76 6 14 C5.67 14 5.34 14 5 14 Z " fill="#00994B" transform="translate(708,108)"/>
<path d="M0 0 C1.37478516 0.01740234 1.37478516 0.01740234 2.77734375 0.03515625 C3.69644531 0.04417969 4.61554688 0.05320312 5.5625 0.0625 C6.27277344 0.07410156 6.98304687 0.08570312 7.71484375 0.09765625 C9.85737836 6.44930687 11.99290546 12.80328166 14.12353516 19.15893555 C14.84945411 21.3215894 15.57698634 23.48370244 16.30615234 25.64526367 C17.35286443 28.74908544 18.39379372 31.8547944 19.43359375 34.9609375 C19.76170044 35.92977371 20.08980713 36.89860992 20.42785645 37.89680481 C20.72816772 38.79751205 21.028479 39.6982193 21.33789062 40.6262207 C21.60436401 41.41897903 21.8708374 42.21173737 22.14538574 43.02851868 C22.71484375 45.09765625 22.71484375 45.09765625 22.71484375 48.09765625 C19.41484375 48.09765625 16.11484375 48.09765625 12.71484375 48.09765625 C12.05484375 44.79765625 11.39484375 41.49765625 10.71484375 38.09765625 C5.43484375 38.09765625 0.15484375 38.09765625 -5.28515625 38.09765625 C-5.59453125 39.56203125 -5.90390625 41.02640625 -6.22265625 42.53515625 C-7.16015625 46.97265625 -7.16015625 46.97265625 -8.28515625 48.09765625 C-11.2851907 48.23943482 -14.2827286 48.13994396 -17.28515625 48.09765625 C-16.01262505 41.92638023 -14.41225134 35.94337373 -12.5 29.94140625 C-12.23884903 29.11306274 -11.97769806 28.28471924 -11.70863342 27.43127441 C-11.16169901 25.6996887 -10.61288628 23.96869521 -10.06225586 22.23828125 C-9.21655434 19.57846514 -8.37840487 16.91634955 -7.54101562 14.25390625 C-7.00695409 12.56626578 -6.47246457 10.87876068 -5.9375 9.19140625 C-5.68645004 8.39359741 -5.43540009 7.59578857 -5.17674255 6.77380371 C-3.05466032 0.13054104 -3.05466032 0.13054104 0 0 Z M1.71484375 14.09765625 C0.39484375 18.71765625 -0.92515625 23.33765625 -2.28515625 28.09765625 C0.68484375 28.09765625 3.65484375 28.09765625 6.71484375 28.09765625 C6.26522179 26.1373045 5.80486127 24.17941316 5.33984375 22.22265625 C4.95699219 20.58683594 4.95699219 20.58683594 4.56640625 18.91796875 C3.9257816 15.9935717 3.9257816 15.9935717 1.71484375 14.09765625 Z " fill="#00994B" transform="translate(1710.28515625,107.90234375)"/>
<path d="M0 0 C24 0 24 0 30 5 C32.747029 10.74378792 32.76086872 16.29179304 30.6875 22.25 C29.59295286 25.14562735 28.38241962 26.99994402 26 29 C20.57364835 30.80878388 14.66885438 30.05200784 9 30 C9 35.94 9 41.88 9 48 C6.03 48 3.06 48 0 48 C0 32.16 0 16.32 0 0 Z M9 9 C9 12.96 9 16.92 9 21 C10.588125 21.061875 12.17625 21.12375 13.8125 21.1875 C14.70582031 21.22230469 15.59914063 21.25710937 16.51953125 21.29296875 C19.03460078 21.2029198 19.03460078 21.2029198 20.80078125 19.67578125 C22.65747311 17.08125093 22.38675552 15.09404418 22 12 C20.86066675 10.2247245 20.86066675 10.2247245 19 9 C16.48710325 8.63786432 16.48710325 8.63786432 13.8125 8.8125 C12.224375 8.874375 10.63625 8.93625 9 9 Z " fill="#00994A" transform="translate(664,108)"/>
<path d="M0 0 C24 0 24 0 29 4 C31.88015038 9.31518662 31.65382823 15.11554592 31 21 C29.01532104 25.04023931 26.87275687 27.72344697 23 30 C18.30257317 30.39853734 13.72350556 30.13120849 9 30 C9 35.94 9 41.88 9 48 C6.03 48 3.06 48 0 48 C0 32.16 0 16.32 0 0 Z M9 9 C9 12.96 9 16.92 9 21 C10.588125 21.0825 12.17625 21.165 13.8125 21.25 C15.15248047 21.31960937 15.15248047 21.31960937 16.51953125 21.390625 C19.12846073 21.22762964 19.12846073 21.22762964 20.8359375 19.1796875 C22.47217154 16.11586671 21.92599767 14.27660714 21 11 C19.18806994 8.75675164 19.18806994 8.75675164 16.6171875 8.8046875 C15.71226562 8.82789062 14.80734375 8.85109375 13.875 8.875 C12.26625 8.91625 10.6575 8.9575 9 9 Z " fill="#009A4B" transform="translate(793,108)"/>
<path d="M0 0 C7.92 0 15.84 0 24 0 C29.43315604 5.43315604 31.04778972 7.56973057 31.3125 14.9375 C31.1789914 20.55320556 29.879047 24.12776114 25.84375 28.1484375 C20.6746381 31.51404058 14.99888268 30.2242573 9 30 C9 35.94 9 41.88 9 48 C6.03 48 3.06 48 0 48 C0 32.16 0 16.32 0 0 Z M9 9 C9 12.96 9 16.92 9 21 C10.588125 21.0825 12.17625 21.165 13.8125 21.25 C15.15248047 21.31960937 15.15248047 21.31960937 16.51953125 21.390625 C19.12846073 21.22762964 19.12846073 21.22762964 20.8359375 19.1796875 C22.47217154 16.11586671 21.92599767 14.27660714 21 11 C19.18806994 8.75675164 19.18806994 8.75675164 16.6171875 8.8046875 C15.71226563 8.82789062 14.80734375 8.85109375 13.875 8.875 C12.26625 8.91625 10.6575 8.9575 9 9 Z " fill="#009A4B" transform="translate(1154,108)"/>
<path d="M0 0 C7.92 0 15.84 0 24 0 C29.43315604 5.43315604 31.04778972 7.56973057 31.3125 14.9375 C31.1789914 20.55320556 29.879047 24.12776114 25.84375 28.1484375 C20.6746381 31.51404058 14.99888268 30.2242573 9 30 C9 35.94 9 41.88 9 48 C6.03 48 3.06 48 0 48 C0 32.16 0 16.32 0 0 Z M9 9 C9 12.96 9 16.92 9 21 C10.588125 21.0825 12.17625 21.165 13.8125 21.25 C15.15248047 21.31960937 15.15248047 21.31960937 16.51953125 21.390625 C19.12846073 21.22762964 19.12846073 21.22762964 20.8359375 19.1796875 C22.47217154 16.11586671 21.92599767 14.27660714 21 11 C19.18806994 8.75675164 19.18806994 8.75675164 16.6171875 8.8046875 C15.71226562 8.82789062 14.80734375 8.85109375 13.875 8.875 C12.26625 8.91625 10.6575 8.9575 9 9 Z " fill="#009A4B" transform="translate(344,108)"/>
<path d="M0 0 C3.63 0 7.26 0 11 0 C13.97 5.28 16.94 10.56 20 16 C22.64 10.72 25.28 5.44 28 0 C31.3 0 34.6 0 38 0 C36.95703551 3.84085726 35.46371644 7.04976415 33.43359375 10.44140625 C25.89765744 23.19135524 23.35598951 33.21771262 24 48 C21.03 48 18.06 48 15 48 C15.05542969 46.81148437 15.11085938 45.62296875 15.16796875 44.3984375 C15.37802062 30.290433 11.177737 20.37402057 4.26269531 8.23535156 C2.73727004 5.53488872 1.35345869 2.7897822 0 0 Z " fill="#00994A" transform="translate(1360,108)"/>
<path d="M0 0 C3.63 0 7.26 0 11 0 C13.64 5.28 16.28 10.56 19 16 C21.64 10.72 24.28 5.44 27 0 C30.63 0 34.26 0 38 0 C36.6080434 2.98103124 35.21155304 5.95980074 33.8125 8.9375 C33.42513672 9.76830078 33.03777344 10.59910156 32.63867188 11.45507812 C30.68369272 15.60738921 28.66419224 19.56424084 26.25 23.46875 C23.45188944 28.41984058 23.22447244 32.96322932 23.1875 38.5625 C23.16236328 39.47580078 23.13722656 40.38910156 23.11132812 41.33007812 C23.05313819 43.55293357 23.02354034 45.77650764 23 48 C20.03 48 17.06 48 14 48 C14.07863281 46.70191406 14.15726563 45.40382812 14.23828125 44.06640625 C14.6452501 27.93632341 9.34896093 16.75427564 1.17749023 3.05932617 C0 1 0 1 0 0 Z " fill="#009948" transform="translate(1565,108)"/>
<path d="M0 0 C2.97 0 5.94 0 9 0 C9.04975831 4.83803846 9.08588788 9.67592509 9.10986328 14.51416016 C9.11986737 16.15709023 9.13347494 17.80000274 9.15087891 19.44287109 C9.17537515 21.81612505 9.18653917 24.18914185 9.1953125 26.5625 C9.20563507 27.28679199 9.21595764 28.01108398 9.22659302 28.75732422 C9.22816959 36.06419113 8.29083243 42.54382905 3 48 C-0.97452888 49.98726444 -5.6784077 49.53029412 -10 49 C-12.95658165 47.70468034 -13.84211782 46.60052468 -16 44 C-17.52711965 40.04337183 -18 37.24563188 -18 33 C-15.04335481 31.5216774 -12.25770263 31.93967217 -9 32 C-8.34 34.31 -7.68 36.62 -7 39 C-4.525 38.505 -4.525 38.505 -2 38 C-0.77681134 34.33043403 -0.76883876 30.87678997 -0.68359375 27.05078125 C-0.66281265 26.27816452 -0.64203156 25.50554779 -0.62062073 24.70951843 C-0.55528962 22.2439352 -0.49631685 19.77824639 -0.4375 17.3125 C-0.39429913 15.63996309 -0.35068434 13.96743681 -0.30664062 12.29492188 C-0.1996251 8.1967225 -0.09831143 4.09841704 0 0 Z " fill="#00994A" transform="translate(900,108)"/>
<path d="M0 0 C2.97 0 5.94 0 9 0 C9 15.84 9 31.68 9 48 C6.03 48 3.06 48 0 48 C0 32.16 0 16.32 0 0 Z " fill="#009A4B" transform="translate(1681,108)"/>
<path d="M0 0 C2.97 0 5.94 0 9 0 C9 15.84 9 31.68 9 48 C6.03 48 3.06 48 0 48 C0 32.16 0 16.32 0 0 Z " fill="#009A4B" transform="translate(1314,108)"/>
<path d="M0 0 C2.97 0 5.94 0 9 0 C9 15.84 9 31.68 9 48 C6.03 48 3.06 48 0 48 C0 32.16 0 16.32 0 0 Z " fill="#009A4B" transform="translate(830,108)"/>
<path d="M0 0 C2.97 0 5.94 0 9 0 C9 15.84 9 31.68 9 48 C6.03 48 3.06 48 0 48 C0 32.16 0 16.32 0 0 Z " fill="#009A4B" transform="translate(535,108)"/>
<path d="M0 0 C2.64 0 5.28 0 8 0 C8 15.84 8 31.68 8 48 C5.36 48 2.72 48 0 48 C0 32.16 0 16.32 0 0 Z " fill="#009B4C" transform="translate(603,108)"/>
</svg>
